<?xml version="1.0" ?>
<!-- Generator: Adobe Illustrator 16.0.0, SVG Export Plug-In . SVG Version: 6.00 Build 0)  -->
<!DOCTYPE svg PUBLIC "-//W3C//DTD SVG 1.1//EN" "http://www.w3.org/Graphics/SVG/1.1/DTD/svg11.dtd">
<svg version="1.1" xmlns="http://www.w3.org/2000/svg" xmlns:xlink="http://www.w3.org/1999/xlink" x="0px" y="0px"
	 width="622.584px" height="709.915px" viewBox="0 0 622.584 709.915" enable-background="new 0 0 622.584 709.915"
	 xml:space="preserve">
<g id="Background" display="none">
	<rect y="-94.667" display="inline" fill="#1A1A5B" width="622.584" height="804.565"/>
</g>
<g id="Photo" display="none">
	
		<image display="inline" overflow="visible" width="1280" height="960" xlink:href="../../../Users/Mark/Pictures/iPhone pics/IMG_2394.JPG"  transform="matrix(0 0.5 -0.5 0 551.3926 -94.6665)">
	</image>
</g>
<g id="Body">
</g>
<g id="Neck_1_">
</g>
<g id="Face">
	<g id="Hair">
	</g>
	<g id="Face_x2F_Skin">
		<polygon id="Face_octagon" display="none" fill="#EDBE9D" points="269.495,393.504 210.386,316.92 210.386,139.927 
			269.495,98.154 311.393,113.458 353.087,98.154 412.195,139.927 412.195,316.92 353.087,393.504 		"/>
	</g>
	<g id="Nose">
	</g>
	<g id="Lips">
	</g>
	<g id="Forehead">
	</g>
	<g id="Eyes">
	</g>
	<g id="Front_Hair">
	</g>
</g>
<g id="Filter">
	<g>
		<polygon id="body" fill="#DD2C2C" points="0,709.899 35.997,492.412 71.393,444.472 235.398,372.333 387.184,372.333 
			551.189,444.472 586.585,492.412 622.584,709.899 		"/>
		<polygon fill="#B21F1F" points="551.19,489.58 454.913,447.84 504.76,424 551.189,444.472 		"/>
		<polygon fill="#898989" points="171.393,450.661 114.585,426.773 114.585,366.114 171.393,342.227 447.839,342.227 
			504.646,366.115 504.646,426.773 447.839,450.661 		"/>
		<polygon fill="#7F1616" points="128.443,393.504 128.443,360.057 171.393,342.227 447.839,342.227 490.059,359.738 
			490.059,393.504 311.393,469.667 		"/>
		<polyline fill="#3F403F" points="235.399,390.985 112.439,426.417 216.366,451.347 311.393,519.208 402.865,451.347 504.646,424 
			387.285,390.985 235.399,390.985 		"/>
		<polygon fill="#B21F1F" points="71.393,489.413 165.921,448.444 114.585,425.474 71.393,444.472 		"/>
		<polygon fill="#BC2A2A" points="129.173,359.738 114.585,366.114 114.585,426.773 172.769,451.334 263.06,451.334 
			235.399,418.333 129.173,393.504 		"/>
		<polyline fill="#BC2A2A" points="490.058,393.529 490.058,359.762 504.646,366.138 504.646,426.797 446.463,451.359 
			359.624,451.334 387.285,418.333 		"/>
		<rect x="305.978" y="546.24" fill="#E04646" width="10.882" height="163.659"/>
		<polyline fill="#B21F1F" points="263.06,451.334 311.393,519.208 359.624,451.334 402.865,451.347 311.494,582.333 
			216.366,451.347 		"/>
		<rect x="305.978" y="503.647" fill="#54B9FF" width="10.882" height="17.301"/>
		<rect x="303.092" y="515.53" fill="#ABE1FF" width="16.602" height="30.71"/>
		<polygon fill="#D33333" points="305.978,546.24 316.859,546.24 316.859,574.642 311.494,582.333 305.978,574.738 		"/>
		<polygon fill="#E23B3B" points="71.393,444.472 71.393,709.899 60.393,709.899 35.997,492.412 		"/>
		<polygon fill="#D33333" points="36.781,499.402 71.393,468.771 71.393,444.472 35.997,492.412 		"/>
		<polygon fill="#E04646" points="35.997,492.412 60.393,709.899 0,709.899 		"/>
		<polygon fill="#F7F7F7" points="226.187,451.302 226.187,442.694 231.583,436.61 239.215,436.61 244.611,442.694 244.611,451.302 
					"/>
		<polygon fill="#D33333" points="228.093,588.422 228.093,443.364 232.373,438.54 238.425,438.54 242.705,443.364 242.705,588.422 
					"/>
		<polygon fill="#BA2A2A" points="235.399,438.54 238.425,438.54 242.705,443.364 242.705,588.422 235.399,588.422 		"/>
		<polygon fill="#F7F7F7" points="378.072,451.375 378.072,442.766 383.469,436.682 391.101,436.682 396.497,442.766 
			396.497,451.375 		"/>
		<polygon fill="#D33333" points="379.979,588.495 379.979,443.436 384.258,438.612 390.311,438.612 394.591,443.436 
			394.591,588.495 		"/>
		<polygon fill="#BA2A2A" points="387.285,438.612 390.311,438.612 394.591,443.436 394.591,588.495 387.285,588.495 		"/>
		<polygon fill="#CE2525" points="551.19,444.488 551.19,709.915 562.191,709.915 586.587,492.427 		"/>
		<polygon fill="#A01C1C" points="585.803,499.417 551.19,468.787 551.19,444.488 586.587,492.427 		"/>
		<polygon fill="#8C1919" points="586.566,492.412 562.171,709.899 622.563,709.899 		"/>
		<rect x="228.093" y="588.422" fill="#B21F1F" width="14.612" height="19.411"/>
		<rect x="380.087" y="588.422" fill="#B21F1F" width="14.612" height="19.411"/>
		<polygon id="Collar" fill="#D6A787" points="235.399,373.893 235.399,418.333 263.06,451.334 311.393,469.667 359.624,451.334 
			387.285,418.333 387.285,373.893 		"/>
		<polyline id="lowestneck" fill="#E5B593" points="311.396,393.504 280.393,393.504 280.393,412.034 294.778,462.746 
			311.393,469.667 328.013,462.746 342.398,412.034 342.398,393.504 311.396,393.504 		"/>
		<polygon id="Neck_behind_chin" fill="#A57A5D" points="235.399,373.893 274.087,407.834 311.393,418.871 348.758,407.834 
			387.393,373.893 387.285,349.329 235.399,349.329 		"/>
		<polygon fill="#AF896E" points="280.393,409.693 280.446,390.985 311.344,390.985 342.451,390.985 342.398,409.693 
			311.445,418.732 		"/>
		<polygon id="Hair_Outline" points="195.393,206.333 185.393,103.333 171.393,103.333 195.393,70.333 183.393,70.333 
			222.393,38.333 211.393,38.333 298.393,6.333 295.06,0 389.393,11.333 389.393,0.333 406.393,36.333 406.393,27.333 
			432.393,100.333 436.893,133.333 420.893,228.333 200.893,232.833 		"/>
		<polyline fill="#161616" points="238.724,119.652 207.036,133.667 242.058,100 207.036,101.667 268.393,84.083 250.059,78.333 
			330.93,76.333 304.143,63.667 369.625,83.667 362.792,63.667 406.059,105.667 412.195,91.667 405.37,131.292 363.457,108.121 
			323.707,113.371 311.458,118.121 299.055,113.412 259.305,108.162 238.724,119.652 		"/>
		<polygon fill="#0F0F0F" points="211.393,38.333 309.018,19 250.059,42.333 327.726,28.333 264.737,50.333 351.621,40.333 
			290.226,56.333 363.06,50.667 313.393,63.667 384.039,63.667 339.625,74.504 387.291,78.333 363.457,108.121 259.305,108.162 
			217.393,131.333 202.004,213.408 194.949,205.333 185.981,109.616 182.879,109.898 185.706,106.561 185.393,103.333 
			171.393,103.333 195.393,70.333 183.393,70.333 219.778,40.479 		"/>
		<polygon points="171.393,103.333 192.393,98.667 182.879,109.898 201.221,108.126 192.393,116.417 211.643,114.583 
			204.393,124.083 217.836,123.285 207.036,133.667 233.415,122 217.393,131.333 201.305,212.608 194.949,205.333 185.981,109.616 
			182.879,109.898 185.706,106.561 185.393,103.333 		"/>
		<polygon fill="#282828" points="207.036,133.667 243.226,102.5 272.905,98.667 242.058,100 		"/>
		<polyline fill="#282828" points="302.296,85.873 268.393,84.083 207.036,101.667 268.893,85.667 302.296,85.873 		"/>
		<polygon fill="#282828" points="250.059,78.333 324.958,78.333 330.393,76.333 		"/>
		<polyline id="Left_Ear" fill="#A3806C" points="210.386,288.664 201.949,281.833 190.199,241.833 185.449,225.333 
			194.949,205.333 210.386,223 		"/>
		<polyline id="Right_Ear" fill="#A3806C" points="412.195,288.664 420.632,281.833 432.382,241.833 437.132,225.333 
			427.632,205.333 412.195,223 		"/>
		<polygon id="Face_Outline" fill="#EDBE9D" points="405.393,131.333 363.393,108.333 323.643,113.583 311.393,118.333 
			311.393,118.333 299.143,113.583 259.393,108.333 217.393,131.333 201.393,217.333 212.393,310.333 225.393,340.333 
			247.465,364.485 274.06,389.333 311.393,400.708 348.726,389.333 375.32,364.485 397.393,340.333 410.393,310.333 
			421.393,217.333 		"/>
		<polygon id="left_chin_shadow_1_" fill="#D6A787" points="201.393,217.333 217.893,265.583 222.584,284.169 229.893,291.083 
			254.047,297.583 271.164,355 278.726,373.833 311.393,369.871 311.393,400.708 274.06,389.333 247.465,364.485 225.393,340.333 
			212.393,310.333 		"/>
		<polygon id="right_chin_shadow" fill="#D6A787" points="421.375,217.396 404.875,265.646 400.183,284.232 392.875,291.146 
			368.721,297.646 351.604,355.063 344.042,373.896 311.375,369.933 311.375,400.771 348.708,389.396 375.303,364.547 
			397.375,340.396 410.375,310.396 		"/>
		<polygon id="left_mandible" fill="#E5B593" points="254.047,297.583 263.94,282.332 274.059,267.5 271.164,274.47 
			274.059,282.332 281.559,288.664 311.393,286.208 311.393,376.198 286.526,378.5 279.936,391.124 274.06,389.333 247.465,364.485 
			243.429,324.825 		"/>
		<polygon id="right_mandible" fill="#E5B593" points="368.84,297.583 358.947,282.332 348.828,267.5 351.723,274.47 
			348.828,282.332 341.328,288.664 311.494,286.208 311.494,376.198 336.36,378.5 342.951,391.124 348.826,389.333 375.422,364.485 
			379.457,324.825 		"/>
		<polygon fill="#EAB794" points="222.584,284.169 247.465,364.485 243.429,324.825 254.047,297.583 229.893,291.083 		"/>
		<polygon fill="#EAB794" points="368.84,297.583 392.875,291.146 400.183,284.232 375.422,364.485 379.457,324.825 		"/>
		<polygon fill="#DBAA89" points="326.457,226.747 337.393,268 333.393,278 323.06,276 327.726,263.082 322.291,228.334 		"/>
		<polygon fill="#EDC6AB" points="311.393,228.334 322.291,228.334 327.624,263.083 322.958,276 311.393,278 		"/>
		<polygon fill="#BF9282" points="333.291,278 322.958,276 311.393,278 311.291,288.538 326.291,287.834 341.124,288.665 
			348.624,282.333 		"/>
		<polygon fill="#CC9B83" points="348.726,282.332 351.621,274.47 348.726,267.5 343.726,264.167 330.93,243.833 337.393,268 
			333.393,278 		"/>
		<polygon fill="#DBAA89" points="296.305,226.789 285.393,268 289.393,278 299.726,276 295.06,263.083 300.495,228.333 		"/>
		<polygon fill="#EDC6AB" points="311.393,229.146 300.495,228.333 295.162,263.083 299.828,276 311.393,278 		"/>
		<polygon fill="#BF9282" points="289.393,278 299.726,276 311.393,278 311.393,288.537 296.393,287.833 281.559,288.664 
			274.059,282.332 		"/>
		<polygon fill="#CC9B83" points="274.059,282.332 271.164,274.47 274.059,267.5 279.059,264.167 291.855,243.833 285.393,268 
			289.393,278 		"/>
		<polygon fill="#B78B72" points="268.05,324.825 264.737,321.511 264.737,316.826 268.05,313.513 272.735,313.513 276.048,316.826 
			276.048,321.511 272.735,324.825 		"/>
		<polygon fill="#B78B72" points="350.057,324.825 346.743,321.511 346.743,316.826 350.057,313.513 354.742,313.513 
			358.056,316.826 358.056,321.511 354.742,324.825 		"/>
		<polygon id="lowerlip" fill="#DB9779" points="331.898,312.121 311.396,319.273 290.894,312.121 270.393,319.333 290.894,342.227 
			331.898,342.227 352.399,319.333 		"/>
		<path id="upperlip" fill="#CE845F" d="M331.898,312.121c-6.673-1.287-13.498,0-13.498,0l-7.008,4.91l-7-4.91
			c0,0-6.832-1.213-13.499,0s-20.501,7.213-20.501,7.213s23,6.125,41,6.125s41.007-6.125,41.007-6.125
			S338.571,313.408,331.898,312.121z"/>
		<polygon id="left_mouth_outline" fill="#AA7B5C" points="262.916,298.891 250.201,314.856 259.025,328.135 255.404,315.548 		"/>
		<polygon id="right_mouth_outline" fill="#AA7B5C" points="359.768,298.891 372.482,314.856 363.658,328.135 367.278,315.548 		"/>
		<polygon id="left_temple" fill="#D6A787" points="238.724,119.652 245.978,170.187 228.004,171.494 207.036,187 220.143,138.583 
					"/>
		<polygon id="left_temple_shadow" fill="#AA7D5E" points="217.393,131.333 238.724,119.652 220.143,138.583 207.036,187 		"/>
		<polygon id="left_forehead" fill="#EAB794" points="201.305,217.162 216.639,215.829 251.034,201.98 289.472,222.821 
			282.971,234.83 273.972,267.33 278.972,263.996 291.768,243.662 296.305,226.789 300.495,228.333 311.393,229.146 
			311.305,118.162 299.055,113.412 259.305,108.162 238.724,119.652 245.891,170.016 227.917,171.322 206.949,186.828 		"/>
		<polygon id="right_temple" fill="#D6A787" points="384.039,119.61 376.785,170.146 394.759,171.452 415.727,186.958 
			402.62,138.542 		"/>
		<polygon id="right_temple_shadow" fill="#AA7D5E" points="405.37,131.292 384.039,119.61 402.62,138.542 415.727,186.958 		"/>
		<polygon id="rightforehead" fill="#EAB794" points="421.458,217.12 406.124,215.787 371.729,201.938 333.291,222.78 
			339.792,234.788 348.791,267.289 343.791,263.955 330.994,243.62 326.457,226.747 322.291,228.334 311.393,229.146 
			311.458,118.121 323.707,113.371 363.457,108.121 384.039,119.61 376.872,169.974 394.846,171.281 415.813,186.787 		"/>
		<polygon fill="#161616" points="330.93,76.333 291.367,89.583 304.143,91.833 280.393,122 298.693,116.309 295.06,145.333 
			304.143,123.833 311.458,118.121 323.643,113.583 363.457,108.121 405.37,131.292 412.195,91.667 406.059,105.667 362.792,63.667 
			369.625,83.667 304.143,63.667 		"/>
		<polygon id="left_eyeshadow" fill="#E2AE8A" points="208.726,214.852 248.767,198.731 275.468,202.435 293.512,222.993 
			285.944,236.972 261.403,247.253 230.463,241.544 		"/>
		<polygon fill="#A3806C" points="222.306,218.927 235.112,225.717 249.367,233.284 279.735,225.717 230.455,218.733 		"/>
		<polygon fill="#E2AE8A" points="414.131,214.854 374.092,198.732 347.39,202.437 329.346,222.994 336.913,236.973 
			361.455,247.255 392.395,241.545 		"/>
		<polygon id="eyelid" fill="#C49576" points="222.306,218.927 249.081,207.092 271.2,209.808 285.944,229.21 257.23,218.733 		"/>
		<polygon id="eyelash" points="230.455,218.733 249.468,212.136 271.2,212.136 279.735,225.717 		"/>
		<polygon id="cornea" fill="#FFFFFF" points="279.735,225.717 271.2,214.852 250.632,214.852 238.215,220.285 254.125,229.21 		"/>
		<polygon id="iris" fill="#070400" points="256.555,227.611 262.125,222.042 262.125,215.406 260.86,214.852 246.032,214.852 
			243.107,218.576 243.107,222.042 248.678,227.611 		"/>
		<polygon id="pupil" fill="#FFFFFF" points="247.785,222.629 245.616,220.461 245.616,217.392 247.785,215.225 250.853,215.225 
			253.02,217.392 253.02,220.461 250.853,222.629 		"/>
		<polygon id="Right_eyebrow" points="331.418,200.334 345.877,187 392.377,187 406.059,197.667 388.98,200.334 361.646,193.667 		
			"/>
		<polygon id="Left_eyebrow" points="291.367,200.333 276.908,187 230.408,187 216.726,197.667 233.805,200.333 261.139,193.667 		
			"/>
		<polygon fill="#A3806C" points="401.434,218.927 388.626,225.717 374.372,233.284 344.003,225.717 393.284,218.733 		"/>
		<polygon id="eyelid_1_" fill="#C49576" points="400.434,218.927 373.658,207.092 351.538,209.808 336.795,229.21 363.763,218.151 
					"/>
		<polygon id="eyelash_1_" points="392.284,218.733 373.27,212.136 351.538,212.136 343.003,225.717 		"/>
		<polygon id="cornea_1_" fill="#FFFFFF" points="343.003,225.717 351.538,214.852 372.105,214.852 384.523,220.285 368.613,229.21 
					"/>
		<polygon id="iris_2_" fill="#070400" points="361.458,227.611 367.028,222.042 367.028,215.406 365.763,214.852 350.936,214.852 
			348.01,218.576 348.01,222.042 353.58,227.611 		"/>
		<polygon id="pupil_1_" fill="#FFFFFF" points="352.697,222.629 350.528,220.461 350.528,217.392 352.697,215.225 355.765,215.225 
			357.932,217.392 357.932,220.461 355.765,222.629 		"/>
		<polygon fill="#3F3F3F" points="295.06,145.333 301.643,119.61 315.393,108.121 298.693,116.309 		"/>
		<polygon fill="#3F3F3F" points="280.393,122 307.393,96.333 337.643,91.833 304.143,91.833 		"/>
		<polygon fill="#3F3F3F" points="291.367,89.583 330.393,81.083 353.893,89.583 330.393,76.333 		"/>
		<polygon fill="#3F3F3F" points="373.922,89.583 369.625,83.667 304.143,63.667 368.143,84.833 		"/>
		<polygon opacity="0.05" points="622.584,709.899 311.494,709.899 311.393,1.814 389.393,11.333 389.393,0.333 406.393,36.333 
			406.393,27.333 432.393,100.333 436.893,133.333 424.664,209.333 427.632,205.333 437.132,225.333 420.632,281.833 
			412.956,288.664 410.393,310.333 397.393,340.333 395.727,342.208 447.839,342.227 504.646,366.115 504.76,424 551.189,444.472 
			586.566,492.412 		"/>
	</g>
</g>
</svg>
