<svg xmlns="http://www.w3.org/2000/svg" xmlns:xlink="http://www.w3.org/1999/xlink" version="1.1" x="0px" y="0px" width="659.612px" height="709.931px" viewBox="0 0 659.612 709.931" enable-background="new 0 0 659.612 709.931" xml:space="preserve"><style>.style0{fill:	#34495E;}.style1{fill:	#7F1616;}.style10{fill:	#D33333;}.style11{fill:	#E04646;}.style12{fill:	#C62426;}.style13{fill:	#961818;}.style14{opacity:	0.1;}.style15{fill:	#E23B3B;}.style16{fill:	#D93939;}.style17{opacity:	0.2;}.style18{fill:	#A01C1C;}.style19{fill:	#8C1919;}.style2{fill:	#D6A787;}.style20{fill:	#CE2525;}.style21{fill:	#851212;}.style22{opacity:	0.3;}.style23{opacity:	0.06;}.style24{fill:	#BC2A2A;}.style25{opacity:	0.15;}.style26{fill:	#898989;}.style27{fill:	#1E1E1E;}.style28{fill:	#95A5A6;}.style29{fill:	#BDC3C7;}.style3{fill:	#E5B593;}.style30{fill:	#F7F7F7;}.style31{fill:	#BA2A2A;}.style32{fill:	#111111;}.style33{fill:	#262626;}.style34{fill:	#2B2B2B;}.style35{fill:	#232323;}.style36{fill:	#383838;}.style37{fill:	#EDBE9D;}.style38{fill:	#A3806C;}.style39{fill:	#EAB794;}.style4{fill:	#A57A5D;}.style40{fill:	#CC9B83;}.style41{fill:	#DBAA89;}.style42{fill:	#EDC6AB;}.style43{fill:	#BF9282;}.style44{fill:	#B78B72;}.style45{fill:	#DB9779;}.style46{fill:	#CE845F;}.style47{fill:	#AA7B5C;}.style48{fill:	#AA7D5E;}.style49{fill:	#E2AE8A;}.style5{fill:	#AF896E;}.style50{fill:	#C49576;}.style51{fill:	#FFFFFF;}.style52{fill:	#3F3F3F;}.style53{opacity:	0.06;fill:	#141414;}.style54{opacity:	0.05;fill:	#1E1E1E;}.style6{fill:	#05ACD9;}.style7{fill:	#DD2C2C;}.style8{fill:	#B72424;}.style9{fill:	#B21F1F;}</style><g id="Background" display="none"><rect x="-70.3" y="-94.7" display="inline" width="798.1" height="804.6" class="style0"/></g><g id="back_collar"><polygon points="413.9,405.3 422.7,384.1 418.7,369.8 413,365 329.8,344.5 329.8,476 335.3,484.4 378.8,438.1 396.6,428.3" class="style1"/><polygon points="248.2,407.9 237.1,392 240.5,370.1 246.6,365 329.8,344.5 329.8,476 280.8,438.1 264.6,427.7" class="style1"/></g><g id="Neck_1_"><polygon id="neck" points="253.9,373.9 253.9,418.3 281.6,451.3 329.9,469.7 378.1,451.3 405.8,418.3 405.8,373.9" class="style2"/><polyline id="adams_apple" points="329.9,393.5 298.9,393.5 298.9,412 309.9,462.7 329.8,492.7 349.8,462.7 360.9,412 360.9,393.5 329.9,393.5" class="style3"/><polygon id="Neck_behind_jaw" points="253.9,373.9 292.6,407.8 329.9,418.9 367.2,407.8 405.9,373.9 405.8,349.3 253.9,349.3" class="style4"/><polygon id="neck_under_chin" points="298.9,409.7 298.9,391 329.8,391 360.9,391 360.9,409.7 329.9,418.7" class="style5"/></g><g id="Photo" display="none"><image overflow="visible" width="1280" height="960" xlink:href="../../../../../Users/Mark/Pictures/iPhone pics/IMG_2394.JPG" transform="matrix(0 0.5 -0.5 0 569.8838 -94.6665)"></image><image display="inline" overflow="visible" width="827" height="870" xlink:href="763F1D89.jpg" transform="matrix(1.7152 0 0 1.7152 -20.3799 7)"></image><path display="inline" d="M311.217 709.9" class="style6"/></g><g id="Layer_14"><polygon points="110.8,709.9 59.6,542.3 57.9,502.3 253.9,418.3 297.8,461.2 312,526.3 312,709.9" class="style7"/><polygon points="57.2,500.5 61.2,542.3 267.6,421.6 257.5,407.9" class="style8"/><polygon points="61.2,483.7 61,484 56,503.3 227.1,423.2 225.9,413.2 225,413.5" class="style9"/><polygon points="61.2,483.7 34.6,517.2 33.9,519.2 34.4,537.8 35.4,541.4 58,503.9 57.9,502.3" class="style10"/><polygon points="20.3,564.1 16.7,614.7 0,709.9 112.5,709.9 36.2,537.9 35.4,539.3 35.3,537.3 20.9,562.1" class="style11"/><polygon points="311.4,526.9 320.3,507.9 348.3,524.9 327.5,472.8 326.4,461.7 325.6,460.8 296.3,460.8 297.2,461.7 301.2,490.3" class="style12"/><polygon points="348.6,709.9 329.8,709.9 311.2,709.9 311.2,526.3 319.9,507.6 335.3,484.4 342.6,472 344.6,461.7 365.6,439 366,438.9 362,466 354.1,474.2 356.1,497.8 349.2,526.3" class="style9"/><polygon points="325.3,532.6 320.9,524.9 325.3,517.2 334.2,517.2 338.7,524.9 334.2,532.6" class="style13"/><polygon points="327.4,527.2 329,524.9 327.5,522.6 329.8,524.2 332.1,522.6 330.5,524.9 332.1,527.2 329.8,525.6" class="style7"/><polygon points="325.3,646.7 320.9,638.9 325.3,631.2 334.2,631.2 338.7,638.9 334.2,646.7" class="style13"/><polygon points="327.4,641.3 329,638.9 327.5,636.6 329.8,638.2 332.1,636.6 330.5,638.9 332.1,641.3 329.8,639.7" class="style7"/><polygon points="75.4,681.8 88.4,709.9 85.6,709.9 78.4,692.8" class="style14"/><polygon display="none" points="193.4,677.3 131.8,686.3 102.3,698.5 105.7,691 137.8,652.3 103.2,688.7 97.6,698.8 93.4,691.7 97.5,636.2 136,539.3 92.5,633.7 87.9,678.2 70.2,614.3 84.6,686.7 95.6,709.9 104.1,709.9 101.1,704.8 134,690.5" class="style14"/><polygon points="35.4,539.3 110.8,709.9 112.5,709.9 102.2,675.7 61.2,542.3 57.9,502.3" class="style15"/><polygon points="20.3,564.1 35.4,539.3 34.6,517.2" class="style16"/><polygon points="65.9,620.8 86.4,673.1 102.9,709.9 97,709.9 84.4,675.9" class="style14"/><polygon points="16.7,614.7 0,709.9 4.6,709.9 6.7,691.3" class="style17"/><polygon points="547.1,709.9 547.9,709.9 599.9,543.7 602.6,501.6 405.7,418.3 363.2,453.9 361.6,465.4 353.2,474 354.9,498 348.3,526.3 348.3,709.9" class="style7"/><polygon points="603.2,501.2 599.3,542.7 598.4,542.3 392,421.6 404,405.3" class="style8"/><polygon points="598.4,483.7 599.8,485.4 603.2,502.5 601.7,502.3 434.9,424.3 434.5,413.5" class="style9"/><polygon points="598.4,483.7 625.1,517.2 626.4,521.5 625.8,546.6 601.2,508.1 601.7,502.3" class="style18"/><polygon points="639.4,564.1 642.9,614.7 659.6,709.9 548.8,709.9 547.6,709.9 622.4,538.3 624.3,537 637.3,557.5" class="style19"/><polygon points="584.2,681.8 571.2,709.9 574,709.9 581.2,692.8" class="style17"/><polygon points="624.3,539.3 548.8,709.9 547.1,709.9 557.4,675.7 598.4,542.3 601.7,502.3" class="style20"/><polygon points="639.4,564.1 624.3,539.3 625.1,517.2" class="style21"/><polygon points="593.7,620.7 573.2,673.1 556.7,709.9 562.5,709.9 575.2,675.9" class="style17"/><polygon points="642.9,614.7 659.6,709.9 655,709.9 652.9,691.3" class="style22"/><polygon points="365.6,439 374.1,435.7 391,444.3 392.2,446.3 363.2,453.9" class="style9"/><polygon points="354.7,450.8 353.2,452.4 353.2,462.7" class="style22"/><polygon points="319.6,443.3 329.8,461.5 338.6,468.1 342.6,472 333.3,487.4 327.5,472.8 326.4,461.7 309.3,442" class="style14"/><polygon points="301.2,490.3 311.2,526.3 319.9,507.6 333.3,487.4 327.5,472.8" class="style8"/></g><g id="Pocket"><rect x="146.9" y="606.1" width="120.7" height="103.8" class="style7"/><polygon points="161.9,647 252.5,647 267.6,632.3 267.6,606.1 146.9,606.1 146.9,632.3" class="style12"/><polygon points="202.1,636.2 197.7,628.5 202.1,620.8 211,620.8 215.5,628.5 211,636.2" class="style13"/><polygon points="204.2,630.8 205.8,628.5 204.2,626.1 206.6,627.7 208.9,626.1 207.3,628.5 208.9,630.8 206.6,629.2" class="style7"/><polygon points="153.7,639 146.9,632.3 146.9,709.9 153.7,709.9" class="style8"/><polygon points="260.8,639 267.6,632.3 267.6,709.9 260.8,709.9" class="style8"/><polygon points="146.9,632.3 153.7,639 153.7,606.1 146.9,606.1" class="style9"/><polygon points="161.3,647.1 170.8,647.1 151.7,627.5 146.9,632.3" class="style9"/><polygon points="267.6,632.3 260.8,638.9 260.8,606.1 267.6,606.1" class="style9"/><polygon points="253.2,647 243.7,647 262.7,627.5 267.6,632.2" class="style9"/><rect x="161.4" y="640.2" width="91.8" height="6.8" class="style9"/><g><rect x="390.1" y="606.1" width="120.7" height="103.8" class="style7"/><polygon points="405.1,647 495.8,647 510.8,632.4 510.8,606.1 390.1,606.1 390.1,632.4" class="style12"/><polygon points="445.4,636.2 440.9,628.5 445.4,620.8 454.3,620.8 458.7,628.5 454.3,636.2" class="style13"/><polygon points="447.5,630.8 449.1,628.5 447.5,626.1 449.8,627.7 452.2,626.1 450.6,628.5 452.1,630.8 449.8,629.2" class="style7"/><polygon points="396.9,639 390.1,632.4 390.1,709.9 396.9,709.9" class="style8"/><polygon points="504,639 510.8,632.4 510.8,709.9 504,709.9" class="style8"/><polygon points="390.1,632.4 396.9,639 396.9,606.1 390.1,606.1" class="style9"/><polygon points="404.5,647.1 414,647.1 395,627.5 390.1,632.3" class="style9"/><polygon points="510.8,632.3 504,639 504,606.1 510.8,606.1" class="style9"/><polygon points="496.4,647.1 486.9,647 505.9,627.5 510.8,632.3" class="style9"/><rect x="404.6" y="640.3" width="91.8" height="6.8" class="style9"/></g></g><g id="collar"><polygon points="276.1,440.5 285.5,435.7 307.6,440.1 326.4,461.7 297.2,461.7" class="style9"/><polygon points="311.2,526.3 319.9,507.6 336.1,492.1 353.2,474 361.6,465.4 363.2,453.9 363.2,453.9 365.6,439 374.1,435.7 391,444.3 399.6,457.9 371.2,471.2 346.1,492.1 343.7,501.3 378.4,488.3 418.7,475.5" class="style23"/><polygon points="227.6,483.7 251.9,400.3 267.6,421.6 285.5,435.7 285.5,435.7 295.9,437.7 274.2,449.2 262.9,467" class="style14"/><polygon points="246.6,365 233.9,375.7 233.9,393 225.1,411.1 223.9,447 216.6,483.7 255.9,464.3 268.6,444.3 285.5,435.7 267.6,421.6 251.9,400.3 241.2,383" class="style24"/><polygon points="413,365 425.7,375.7 425.7,393 434.4,411.1 435.7,447 443,483.7 403.7,464.3 391,444.3 374.1,435.7 391.9,421.6 407.7,400.3 418.3,383" class="style24"/><polyline points="429.9,401.7 431.2,448.1 437.7,476.3 406.2,460.5 395,442.1 377.5,432.9 374.1,435.7 391,444.3 403.7,464.3 443,483.7 435.7,447 434.4,411.1 429.9,401.7" class="style9"/><polyline points="229.7,401.7 228.4,448.1 221.9,476.3 253.4,460.5 264.5,442.1 282,432.9 285.5,435.7 268.6,444.3 255.9,464.3 216.6,483.7 223.9,447 225.1,411.1 229.7,401.7" class="style9"/><polygon points="297.9,459.3 293.4,451.6 297.9,443.9 306.8,443.9 311.2,451.6 306.8,459.3" class="style13"/><polygon points="300,453.9 301.6,451.6 300,449.2 302.3,450.8 304.7,449.2 303.1,451.6 304.6,453.9 302.3,452.3" class="style7"/><polygon points="442.2,479.9 435.9,448.2 434.5,413.5 439.9,415.8 441.1,449.3 448.4,483.7" class="style25"/></g><g id="Body" display="none"><polygon id="body" display="inline" points="18.5,709.9 54.5,492.4 89.9,444.5 253.9,372.3 405.7,372.3 569.7,444.5 605.1,492.4 641.1,709.9" class="style7"/><polygon id="right_upper_shoulder" display="inline" points="569.7,489.6 473.3,447.8 523.3,424 569.7,444.5" class="style9"/><polygon id="Hoodie_outline__x28_reference_x29_" points="189.9,450.7 133.1,426.8 133.1,366.1 189.9,342.2 466.3,342.2 523.1,366.1 523.1,426.8 466.3,450.7" class="style26"/><polygon id="Back_hood" display="inline" points="147,393.6 147,360.1 189.9,342.3 466.4,342.3 508.6,359.8 508.6,393.6 329.9,469.7" class="style1"/><polyline id="front_of_shirt" display="inline" points="253.9,391 130.9,426.4 234.9,451.3 329.9,519.2 421.4,451.3 523.1,424 405.8,391 253.9,391" class="style27"/><polygon id="left_upper_shoulder" display="inline" points="89.9,489.4 184.4,448.4 133.1,425.5 89.9,444.5" class="style9"/><polygon id="left_front_hood" display="inline" points="147.7,359.7 133.1,366.1 133.1,426.8 191.3,451.3 281.6,451.3 253.9,418.3 147.7,393.5" class="style24"/><polyline id="right_front_hood" display="inline" points="508.5,393.5 508.5,359.8 523.1,366.1 523.1,426.8 465,451.4 378.1,451.3 405.8,418.3" class="style24"/><rect id="front_lower_zipper" x="324.5" y="546.2" display="inline" width="10.9" height="163.7" class="style11"/><polyline id="front_hoodie_split" display="inline" points="281.6,451.3 329.9,519.2 378.1,451.3 421.4,451.3 330,582.3 234.9,451.3" class="style9"/><polygon id="upper_zipper_path" display="inline" points="324.5,546.2 335.4,546.2 335.4,574.6 330,582.3 324.5,574.7" class="style10"/><rect id="upper_zipper" x="324.5" y="503.6" display="inline" width="10.9" height="17.3" class="style28"/><rect id="lower_zipper" x="321.6" y="515.5" display="inline" width="16.6" height="30.7" class="style29"/><polygon id="left_lower_armpit" display="inline" points="89.9,444.5 89.9,709.9 78.9,709.9 54.5,492.4" class="style15"/><polygon id="right_lower_armpit" display="inline" points="569.7,444.5 569.7,709.9 580.7,709.9 605.1,492.4" class="style20"/><polygon id="left_lower_shoulder" display="inline" points="55.3,499.4 89.9,468.8 89.9,444.5 54.5,492.4" class="style10"/><polygon id="right_lower_shoulder" display="inline" points="604.3,499.4 569.7,468.8 569.7,444.5 605.1,492.4" class="style18"/><polygon id="left_arm" display="inline" points="54.5,492.4 78.9,709.9 18.5,709.9" class="style11"/><polygon id="right_arm" display="inline" points="605.1,492.4 580.7,709.9 641.1,709.9" class="style19"/><polygon id="left_string_hole" display="inline" points="244.7,451.3 244.7,442.7 250.1,436.6 257.7,436.6 263.1,442.7 263.1,451.3" class="style30"/><polygon id="right_string_hole" display="inline" points="396.6,451.4 396.6,442.8 402,436.7 409.6,436.7 415,442.8 415,451.4" class="style30"/><polygon id="left_x2C__left_half_string" display="inline" points="246.6,588.4 246.6,443.4 250.9,438.5 256.9,438.5 261.2,443.4 261.2,588.4" class="style10"/><polygon id="left_x2C__right_half_string" display="inline" points="253.9,438.5 256.9,438.5 261.2,443.4 261.2,588.4 253.9,588.4" class="style31"/><polygon id="right_x2C__left_half_string" display="inline" points="398.5,588.5 398.5,443.4 402.7,438.6 408.8,438.6 413.1,443.4 413.1,588.5" class="style10"/><polygon id="right_x2C__right_half_string" display="inline" points="405.8,438.6 408.8,438.6 413.1,443.4 413.1,588.5 405.8,588.5" class="style31"/><rect id="left_string_aglet" x="246.6" y="588.4" display="inline" width="14.6" height="19.4" class="style9"/><rect id="right_string_aglet" x="398.6" y="588.4" display="inline" width="14.6" height="19.4" class="style9"/><polygon id="left_shirt_shadow" display="inline" points="253.9,418.3 253.9,391 201.5,406.1" class="style32"/><polygon id="right_shirt_shadow" display="inline" points="405.8,418.3 405.8,391 458.1,405.7" class="style32"/></g><g id="Face"><g id="Hair"><polygon id="Hair_Outline" points="213.9,206.3 203.9,103.3 189.9,103.3 213.9,70.3 201.9,70.3 240.9,38.3 229.9,38.3 316.9,6.3 313.6,0 407.9,11.3 407.9,0.3 424.9,36.3 424.9,27.3 450.9,100.3 455.4,133.3 439.4,228.3 219.4,232.8" class="style33"/><polyline id="second_front_wave" points="257.2,119.7 225.5,133.7 260.5,100 225.5,101.7 286.9,84.1 268.6,78.3 349.4,76.3 322.6,63.7 388.1,83.7 381.3,63.7 424.6,105.7 430.7,91.7 423.9,131.3 381.9,108.1 342.2,113.4 329.9,118.1 317.5,113.4 277.8,108.2 257.2,119.7" class="style34"/><polygon id="left_half_sheen" points="229.9,38.3 327.5,19 268.6,42.3 346.2,28.3 283.2,50.3 370.1,40.3 308.7,56.3 381.6,50.7 331.9,63.7 402.5,63.7 358.1,74.5 405.8,78.3 381.9,108.1 277.8,108.2 235.9,131.3 220.5,213.4 213.4,205.3 204.5,109.6 201.4,109.9 204.2,106.6 203.9,103.3 189.9,103.3 213.9,70.3 201.9,70.3 238.3,40.5" class="style34"/><polygon id="leftmost_buzz" points="189.9,103.3 210.9,98.7 201.4,109.9 219.7,108.1 210.9,116.4 230.1,114.6 222.9,124.1 236.3,123.3 225.5,133.7 251.9,122 235.9,131.3 219.8,212.6 213.4,205.3 204.5,109.6 201.4,109.9 204.2,106.6 203.9,103.3" class="style35"/><polygon id="secondwave_streak_1" points="225.5,133.7 261.7,102.5 291.4,98.7 260.5,100" class="style36"/><polyline id="second_wave_streak_2" points="320.8,85.9 286.9,84.1 225.5,101.7 287.4,85.7 320.8,85.9" class="style36"/><polygon id="secondwave_streak_3" points="268.6,78.3 343.4,78.3 348.9,76.3" class="style36"/></g><g id="Face_x2F_Skin"><polygon id="Face_octagon" display="none" points="288,393.5 228.9,316.9 228.9,139.9 288,98.2 329.9,113.5 371.6,98.2 430.7,139.9 430.7,316.9 371.6,393.5" class="style37"/><polyline id="Left_Ear" points="228.9,288.7 220.4,281.8 208.7,241.8 203.9,225.3 213.4,205.3 228.9,223" class="style38"/><polygon id="Right_Ear_2_" points="429.4,289.8 439.1,281.8 450.9,241.8 455.6,225.3 446.1,205.3 430.7,223" class="style38"/><polygon id="Face_Outline" points="423.9,131.3 381.9,108.3 342.1,113.6 329.9,118.3 329.9,118.3 317.6,113.6 277.9,108.3 235.9,131.3 219.9,217.3 230.9,310.3 243.9,340.3 266,364.5 292.6,389.3 329.9,400.7 367.2,389.3 393.8,364.5 415.9,340.3 428.9,310.3 439.9,217.3" class="style37"/><polygon id="left_chin_shadow_1_" points="219.9,217.3 236.4,265.6 241.1,284.2 248.4,291.1 272.5,297.6 289.7,355 297.2,373.8 329.9,369.9 329.9,400.7 292.6,389.3 266,364.5 243.9,340.3 230.9,310.3" class="style2"/><polygon id="right_chin_shadow" points="439.9,217.4 423.4,265.6 418.7,284.2 411.4,291.1 387.2,297.6 370.1,355.1 362.5,373.9 329.9,369.9 329.9,400.8 367.2,389.4 393.8,364.5 415.9,340.4 428.9,310.4" class="style2"/><polygon id="left_mandible" points="272.5,297.6 282.4,282.3 292.6,267.5 289.7,274.5 292.6,282.3 300.1,288.7 329.9,286.2 329.9,376.2 305,378.5 298.4,391.1 292.6,389.3 266,364.5 261.9,324.8" class="style3"/><polygon id="right_mandible" points="387.3,297.6 377.4,282.3 367.3,267.5 370.2,274.5 367.3,282.3 359.8,288.7 330,286.2 330,376.2 354.9,378.5 361.4,391.1 367.3,389.3 393.9,364.5 397.9,324.8" class="style3"/><polygon id="left_undercheekbone" points="241.1,284.2 266,364.5 261.9,324.8 272.5,297.6 248.4,291.1" class="style39"/><polygon id="right_undercheekbone" points="387.3,297.6 411.4,291.1 418.7,284.2 393.9,364.5 397.9,324.8" class="style39"/></g><g id="Nose"><polygon id="right_outer_nostril" points="367.2,282.3 370.1,274.5 367.2,267.5 362.2,264.2 349.4,243.8 355.9,268 351.9,278" class="style40"/><polygon id="left_outer_nostril" points="292.6,282.3 289.7,274.5 292.6,267.5 297.6,264.2 310.3,243.8 303.9,268 307.9,278" class="style40"/><polygon id="right_nose_bridge_shadow" points="344.9,226.7 355.9,268 351.9,278 341.6,276 346.2,263.1 340.8,228.3" class="style41"/><polygon id="left_nose_bridge_shadow" points="314.8,226.8 303.9,268 307.9,278 318.2,276 313.6,263.1 319,228.3" class="style41"/><polygon id="right_nose_bridge" points="329.9,228.3 340.8,228.3 346.1,263.1 341.4,276 329.9,278" class="style42"/><polygon id="left_nosebridge" points="329.9,229.1 319,228.3 313.7,263.1 318.3,276 329.9,278" class="style42"/><polygon id="right_nostril" points="351.8,278 341.4,276 329.9,278 329.8,288.5 344.8,287.8 359.6,288.7 367.1,282.3" class="style43"/><polygon id="left_nostril" points="307.9,278 318.2,276 329.9,278 329.9,288.5 314.9,287.8 300.1,288.7 292.6,282.3" class="style43"/></g><g id="Lips_x2F_Mouth"><polygon id="left_mouth_dimple" points="286.5,324.8 283.2,321.5 283.2,316.8 286.5,313.5 291.2,313.5 294.5,316.8 294.5,321.5 291.2,324.8" class="style44"/><polygon id="right_mouth_dimple" points="368.5,324.8 365.2,321.5 365.2,316.8 368.5,313.5 373.2,313.5 376.5,316.8 376.5,321.5 373.2,324.8" class="style44"/><polygon id="lowerlip" points="350.4,312.1 329.9,319.3 309.4,312.1 288.9,319.3 309.4,342.2 350.4,342.2 370.9,319.3" class="style45"/><path id="upperlip" d="M350.39 312.121c-6.673-1.287-13.498 0-13.498 0l-7.008 4.91l-7-4.91 c0 0-6.832-1.213-13.499 0s-20.501 7.213-20.501 7.213s23 6.1 41 6.125s41.007-6.125 41.007-6.125 S357.063 313.4 350.4 312.121z" class="style46"/><polygon id="left_mouth_outline" points="281.4,298.9 268.7,314.9 277.5,328.1 273.9,315.5" class="style47"/><polygon id="right_mouth_outline" points="378.3,298.9 391,314.9 382.1,328.1 385.8,315.5" class="style47"/></g><g id="Forehead"><polygon id="left_temple" points="257.2,119.7 264.5,170.2 246.5,171.5 225.5,187 238.6,138.6" class="style2"/><polygon id="left_temple_shadow" points="235.9,131.3 257.2,119.7 238.6,138.6 225.5,187" class="style48"/><polygon id="left_forehead" points="219.8,217.2 235.1,215.8 269.5,202 308,222.8 301.5,234.8 292.5,267.3 297.5,264 310.3,243.7 314.8,226.8 319,228.3 329.9,229.1 329.8,118.2 317.5,113.4 277.8,108.2 257.2,119.7 264.4,170 246.4,171.3 225.4,186.8" class="style39"/><polygon id="right_temple" points="402.5,119.6 395.3,170.1 413.2,171.5 434.2,187 421.1,138.5" class="style2"/><polygon id="right_temple_shadow" points="423.9,131.3 402.5,119.6 421.1,138.5 434.2,187" class="style48"/><polygon id="rightforehead" points="439.9,217.1 424.6,215.8 390.2,201.9 351.8,222.8 358.3,234.8 367.3,267.3 362.3,264 349.5,243.6 344.9,226.7 340.8,228.3 329.9,229.1 329.9,118.1 342.2,113.4 381.9,108.1 402.5,119.6 395.4,170 413.3,171.3 434.3,186.8" class="style39"/></g><g id="Eyes"><polygon id="left_eyes_socket" points="227.2,214.9 267.3,198.7 294,202.4 312,223 304.4,237 279.9,247.3 249,241.5" class="style49"/><polygon id="right_eye_socket" points="432.6,214.9 392.6,198.7 365.9,202.4 347.8,223 355.4,237 379.9,247.3 410.9,241.5" class="style49"/><polygon id="right_eyeshadow" points="419.9,218.9 407.1,225.7 392.9,233.3 362.5,225.7 411.8,218.7" class="style38"/><polygon id="left_eyeshadow_1_" points="240.8,218.9 253.6,225.7 267.9,233.3 298.2,225.7 248.9,218.7" class="style38"/><polygon id="right_eyelid" points="418.9,218.9 392.1,207.1 370,209.8 355.3,229.2 382.3,218.2" class="style50"/><polygon id="left_eyelid" points="240.8,218.9 267.6,207.1 289.7,209.8 304.4,229.2 275.7,218.7" class="style50"/><polygon id="right_eyelash" points="410.8,218.7 391.8,212.1 370,212.1 361.5,225.7" class="style35"/><polygon id="left_eyelash" points="248.9,218.7 268,212.1 289.7,212.1 298.2,225.7" class="style35"/><polygon id="right_cornea" points="361.5,225.7 370,214.9 390.6,214.9 403,220.3 387.1,229.2" class="style51"/><polygon id="left_cornea" points="298.2,225.7 289.7,214.9 269.1,214.9 256.7,220.3 272.6,229.2" class="style51"/><polygon id="right_iris" points="379.9,227.5 385.5,221.9 385.5,215.3 384.3,214.8 369.4,214.8 366.5,218.5 366.5,221.9 372.1,227.5" class="style35"/><polygon id="left_iris" points="275,227.5 280.6,221.9 280.6,215.3 279.4,214.8 264.5,214.8 261.6,218.5 261.6,221.9 267.2,227.5" class="style35"/><polygon id="right_pupil" points="371.2,222.6 369,220.5 369,217.4 371.2,215.2 374.3,215.2 376.4,217.4 376.4,220.5 374.3,222.6" class="style51"/><polygon id="left_pupil" points="266.3,222.6 264.1,220.5 264.1,217.4 266.3,215.2 269.3,215.2 271.5,217.4 271.5,220.5 269.3,222.6" class="style51"/><polygon id="Right_eyebrow" points="349.9,200.3 364.4,187 410.9,187 424.6,197.7 407.5,200.3 380.1,193.7" class="style35"/><polygon id="Left_eyebrow" points="309.9,200.3 295.4,187 248.9,187 235.2,197.7 252.3,200.3 279.6,193.7" class="style35"/></g><g id="Front_Hair"><polygon id="front_hair_spike" points="349.4,76.3 309.9,89.6 322.6,91.8 298.9,122 317.2,116.3 313.6,145.3 322.6,123.8 329.9,118.1 342.1,113.6 381.9,108.1 423.9,131.3 430.7,91.7 424.6,105.7 381.3,63.7 388.1,83.7 322.6,63.7" class="style33"/><polygon points="313.6,145.3 320.1,119.6 333.9,108.1 317.2,116.3" class="style52"/><polygon points="298.9,122 325.9,96.3 356.1,91.8 322.6,91.8" class="style52"/><polygon points="309.9,89.6 348.9,81.1 372.4,89.6 348.9,76.3" class="style52"/><polygon points="392.4,89.6 388.1,83.7 322.6,63.7 386.6,84.8" class="style52"/></g></g><g id="Filter"><polygon id="Right_half_filter" display="none" points="641.1,709.9 330,709.9 329.9,1.8 407.9,11.3 407.9,0.3 424.9,36.3 424.9,27.3 450.9,100.3 455.4,133.3 443.2,209.3 446.1,205.3 455.6,225.3 439.1,281.8 431.4,288.7 428.9,310.3 415.9,340.3 414.2,342.2 466.3,342.2 523.1,366.1 523.3,424 569.7,444.5 605.1,492.4" class="style53"/><polygon id="Right_half_filter_1_" points="659.6,709.9 330,709.9 329.9,1.8 407.9,11.3 407.9,0.3 424.9,36.3 424.9,27.3 450.9,100.3 455.4,133.3 443.2,209.3 446.1,205.3 455.6,225.3 439.1,281.8 431.4,288.7 428.9,310.3 415.9,340.3 405.8,351.4 405.8,363.2 413,365 425.7,375.7 425.7,393 434.4,411.1 434.5,413.5 598.4,483.7 625.1,517.2 639.4,564.1 642.3,606.1" class="style54"/></g></svg>