<?xml version="1.0" ?>
<!-- Generator: Adobe Illustrator 16.0.0, SVG Export Plug-In . SVG Version: 6.00 Build 0)  -->
<!DOCTYPE svg PUBLIC "-//W3C//DTD SVG 1.1//EN" "http://www.w3.org/Graphics/SVG/1.1/DTD/svg11.dtd">
<svg version="1.1" xmlns="http://www.w3.org/2000/svg" xmlns:xlink="http://www.w3.org/1999/xlink" x="0px" y="0px"
	 width="659.612px" height="709.931px" viewBox="0 0 659.612 709.931" enable-background="new 0 0 659.612 709.931"
	 xml:space="preserve">
<g id="Background" display="none">
	<rect x="-70.337" y="-94.667" display="inline" fill="#34495E" width="798.08" height="804.565"/>
</g>
<g id="back_collar">
	<polygon fill="#382424" points="407.68,400.333 418.346,383 413.012,365 329.781,344.533 329.781,476.028 335.321,484.396 
		378.811,438.094 391.93,421.583 	"/>
	<polygon fill="#382424" points="251.884,400.333 241.217,383 246.551,365 329.781,344.533 329.781,476.028 280.753,438.094 
		267.634,421.583 	"/>
</g>
<g id="Neck_1_">
	<polygon id="neck" fill="#D6A787" points="253.89,373.893 253.89,418.333 281.551,451.334 329.884,469.667 378.115,451.334 
		405.776,418.333 405.776,373.893 	"/>
	<polyline id="adams_apple" fill="#E5B593" points="329.887,393.504 298.884,393.504 298.884,412.034 309.928,462.746 
		329.781,492.717 349.845,462.746 360.89,412.034 360.89,393.504 329.887,393.504 	"/>
	<polygon id="Neck_behind_jaw" fill="#A57A5D" points="253.89,373.893 292.578,407.834 329.884,418.871 367.249,407.834 
		405.884,373.893 405.776,349.329 253.89,349.329 	"/>
	<polygon id="neck_under_chin" fill="#AF896E" points="298.884,409.693 298.937,390.985 329.835,390.985 360.942,390.985 
		360.89,409.693 329.937,418.732 	"/>
</g>
<g id="Photo" display="none">
	
		<image overflow="visible" width="1280" height="960" xlink:href="../../../../../Users/Mark/Pictures/iPhone pics/IMG_2394.JPG"  transform="matrix(0 0.5 -0.5 0 569.8838 -94.6665)">
	</image>
	
		<image display="inline" overflow="visible" width="827" height="870" xlink:href="E77449D9.jpg"  transform="matrix(1.7152 0 0 1.7152 -20.3799 7)">
	</image>
	<path display="inline" fill="#05ACD9" d="M311.217,709.915"/>
</g>
<g id="Layer_14">
	<polygon fill="#E74C3C" points="112.55,709.915 101.352,672.851 61.217,542.334 57.884,502.333 253.89,418.333 297.217,461.667 
		311.217,526.333 311.217,709.915 	"/>
	<polygon fill="#E24737" points="57.884,502.333 61.217,542.334 267.634,421.583 258.217,408.667 	"/>
	<polygon fill="#DD4232" points="61.217,483.667 57.884,502.333 224.673,424.333 225.049,413.522 	"/>
	<polygon fill="#E74C3C" points="61.217,483.667 34.551,517.196 35.352,539.333 57.884,502.333 	"/>
	<polygon fill="#F15646" points="20.256,564.124 16.726,614.667 0,709.915 112.55,709.915 35.352,539.333 	"/>
	<polyline fill="#E24737" points="297.217,461.667 326.384,461.667 327.509,472.771 335.321,484.396 319.884,507.583 
		311.217,526.333 297.217,461.667 	"/>
	<polygon fill="#DD4232" points="348.347,709.915 329.783,709.915 311.219,709.915 311.217,526.333 319.884,507.583 
		335.321,484.396 342.551,472 344.634,461.667 365.611,439.032 363.217,453.917 361.577,465.361 353.217,474 354.884,498 
		348.342,526.333 	"/>
	<polygon fill="#D33828" points="325.331,532.612 320.88,524.904 325.331,517.196 334.231,517.196 338.683,524.904 334.231,532.612 
			"/>
	<polygon fill="#E74C3C" points="327.435,527.231 329.035,524.9 327.453,522.556 329.784,524.157 332.128,522.575 330.527,524.906 
		332.109,527.25 329.778,525.649 	"/>
	<polygon fill="#D33828" points="325.331,646.654 320.88,638.946 325.331,631.238 334.231,631.238 338.683,638.946 334.231,646.654 
			"/>
	<polygon fill="#E74C3C" points="327.435,641.273 329.035,638.942 327.453,636.598 329.784,638.199 332.128,636.617 
		330.527,638.948 332.109,641.292 329.778,639.691 	"/>
	<polygon opacity="0.2" points="75.384,681.833 88.384,709.899 85.628,709.899 78.38,692.838 	"/>
	<polygon display="none" opacity="0.1" points="193.384,677.333 131.806,686.333 102.293,698.532 105.724,691.031 137.84,652.291 
		103.168,688.697 97.581,698.849 93.36,691.686 97.473,636.167 136.04,539.333 92.529,633.746 87.899,678.182 70.228,614.334 
		84.587,686.667 95.632,709.915 104.1,709.915 101.069,704.771 134.015,690.458 	"/>
	<polygon fill="#EC5141" points="35.352,539.333 110.821,709.915 112.55,709.915 102.217,675.667 61.217,542.334 57.884,502.333 	
		"/>
	<polygon fill="#EC5141" points="20.256,564.124 35.352,539.333 34.551,517.196 	"/>
	<polygon opacity="0.2" points="65.884,620.75 86.383,673.083 102.884,709.915 97.044,709.899 84.384,675.892 	"/>
	<polygon opacity="0.2" points="16.726,614.667 0,709.899 4.635,709.91 6.717,691.334 	"/>
	<polygon fill="#E74C3C" points="547.062,709.899 558.261,672.835 598.396,542.319 601.729,502.318 405.723,418.317 
		363.217,453.917 361.577,465.361 353.217,474 354.884,498 348.342,526.333 348.347,709.915 	"/>
	<polygon fill="#E24737" points="601.729,502.318 598.396,542.319 391.979,421.568 401.395,408.651 	"/>
	<polygon fill="#DD4232" points="598.396,483.652 601.729,502.318 434.938,424.318 434.513,413.506 	"/>
	<polygon fill="#D83C2D" points="598.396,483.652 625.062,517.18 624.261,539.318 601.729,502.318 	"/>
	<polygon fill="#D83C2D" points="639.356,564.108 642.886,614.651 659.612,709.899 548.842,709.915 624.261,539.318 	"/>
	<polygon opacity="0.2" points="584.229,681.818 571.229,709.883 573.984,709.883 581.232,692.823 	"/>
	<polygon fill="#DD4232" points="624.261,539.318 548.842,709.915 547.062,709.899 557.396,675.651 598.396,542.319 
		601.729,502.318 	"/>
	<polygon fill="#D33728" points="639.356,564.108 624.261,539.318 625.062,517.18 	"/>
	<polygon opacity="0.2" points="593.729,620.735 573.229,673.068 556.729,709.899 562.567,709.883 575.229,675.876 	"/>
	<polygon opacity="0.3" points="642.886,614.651 659.612,709.883 654.978,709.894 652.896,691.319 	"/>
	<polygon fill="#DD4232" points="365.611,439.032 374.063,435.667 391.012,444.333 392.237,446.268 363.217,453.917 	"/>
	<polygon opacity="0.1" points="311.217,526.333 319.884,507.583 336.051,492.126 353.217,474 361.577,465.361 363.217,453.917 
		363.217,453.917 365.611,439.032 374.063,435.667 391.012,444.333 399.616,457.918 371.213,471.218 346.057,492.126 
		343.748,501.264 378.384,488.333 418.674,475.5 	"/>
	<polygon opacity="0.3" points="354.677,450.83 353.235,452.385 353.235,462.708 	"/>
</g>
<g id="Pocket">
	<rect x="146.884" y="606.125" fill="#E74C3C" width="120.667" height="103.79"/>
	<polygon fill="#E74C3C" points="161.884,647 252.54,647 267.551,632.334 267.551,606.125 146.884,606.125 146.884,632.334 	"/>
	<polygon fill="#D33828" points="202.119,636.167 197.668,628.458 202.119,620.75 211.019,620.75 215.47,628.458 211.019,636.167 	
		"/>
	<polygon fill="#E74C3C" points="204.222,630.786 205.823,628.455 204.241,626.111 206.572,627.711 208.916,626.129 207.315,628.46 
		208.897,630.805 206.566,629.204 	"/>
	<polygon fill="#E24737" points="153.679,638.979 146.884,632.334 146.884,709.915 153.679,709.915 	"/>
	<polygon fill="#E24737" points="260.755,638.979 267.551,632.334 267.551,709.915 260.755,709.915 	"/>
	<polygon fill="#DD4232" points="146.884,632.334 153.679,638.979 153.679,606.125 146.884,606.125 	"/>
	<polygon fill="#DD4232" points="161.262,647.068 170.766,647.067 151.741,627.53 146.884,632.281 	"/>
	<polygon fill="#DD4232" points="267.551,632.301 260.755,638.946 260.755,606.091 267.551,606.091 	"/>
	<polygon fill="#DD4232" points="253.173,647.035 243.669,647.034 262.693,627.497 267.551,632.248 	"/>
	<rect x="161.352" y="640.239" fill="#DD4232" width="91.782" height="6.796"/>
	<g>
		<rect x="390.133" y="606.141" fill="#E74C3C" width="120.667" height="103.79"/>
		<polygon fill="#E74C3C" points="405.133,647.017 495.789,647.017 510.8,632.351 510.8,606.141 390.133,606.141 390.133,632.351 		
			"/>
		<polygon fill="#D33828" points="445.367,636.183 440.917,628.475 445.367,620.767 454.268,620.767 458.719,628.475 
			454.268,636.183 		"/>
		<polygon fill="#E74C3C" points="447.471,630.802 449.072,628.471 447.49,626.127 449.82,627.728 452.165,626.146 450.564,628.477 
			452.146,630.822 449.814,629.22 		"/>
		<polygon fill="#E24737" points="396.928,638.996 390.133,632.351 390.133,709.931 396.928,709.931 		"/>
		<polygon fill="#E24737" points="504.004,638.996 510.8,632.351 510.8,709.931 504.004,709.931 		"/>
		<polygon fill="#DD4232" points="390.133,632.351 396.928,638.996 396.928,606.141 390.133,606.141 		"/>
		<polygon fill="#DD4232" points="404.511,647.084 414.015,647.083 394.99,627.546 390.133,632.297 		"/>
		<polygon fill="#DD4232" points="510.8,632.318 504.004,638.962 504.004,606.108 510.8,606.108 		"/>
		<polygon fill="#DD4232" points="496.422,647.051 486.918,647.05 505.942,627.513 510.8,632.264 		"/>
		<rect x="404.601" y="640.255" fill="#DD4232" width="91.782" height="6.796"/>
	</g>
</g>
<g id="collar">
	<polygon fill="#DD4232" points="276.052,440.499 285.5,435.667 307.634,440.083 326.384,461.667 297.217,461.667 	"/>
	<polygon opacity="0.2" points="227.551,483.667 251.884,400.333 267.634,421.583 285.5,435.667 285.5,435.667 295.878,437.738 
		274.217,449.223 262.884,467 	"/>
	<polygon fill="#E74C3C" points="246.551,365 233.884,375.667 233.884,393 225.134,411.083 223.884,447 216.551,483.667 
		255.884,464.333 268.551,444.333 285.5,435.667 267.634,421.583 251.884,400.333 241.217,383 	"/>
	<polygon fill="#E74C3C" points="413.012,365 425.68,375.667 425.68,393 434.429,411.083 435.679,447 443.012,483.667 
		403.68,464.333 391.012,444.333 374.063,435.667 391.93,421.583 407.68,400.333 418.346,383 	"/>
	<polyline fill="#D8462D" points="429.9,401.726 431.18,448.083 437.68,476.333 406.18,460.458 395.047,442.133 377.545,432.923 
		374.063,435.667 391.012,444.333 403.68,464.333 443.012,483.667 435.679,447 434.429,411.083 429.9,401.726 	"/>
	<polyline fill="#D8462D" points="229.662,401.726 228.384,448.083 221.884,476.333 253.384,460.458 264.517,442.133 
		282.019,432.923 285.5,435.667 268.551,444.333 255.884,464.333 216.551,483.667 223.884,447 225.134,411.083 229.662,401.726 	"/>
	<polygon fill="#D33828" points="297.866,459.279 293.416,451.571 297.866,443.863 306.767,443.863 311.217,451.571 
		306.767,459.279 	"/>
	<polygon fill="#E74C3C" points="299.97,453.898 301.57,451.567 299.988,449.223 302.319,450.824 304.664,449.242 303.063,451.573 
		304.645,453.917 302.313,452.316 	"/>
	<polygon opacity="0.2" points="442.25,479.86 435.924,448.225 434.513,413.506 439.866,415.797 441.134,449.333 448.384,483.667 	
		"/>
</g>
<g id="Body" display="none">
	<polygon id="body" display="inline" fill="#DD2C2C" points="18.491,709.899 54.488,492.412 89.884,444.472 253.889,372.333 
		405.675,372.333 569.681,444.472 605.076,492.412 641.075,709.899 	"/>
	<polygon id="right_upper_shoulder" display="inline" fill="#B21F1F" points="569.682,489.58 473.344,447.818 523.251,424 
		569.681,444.472 	"/>
	<polygon id="Hoodie_outline__x28_reference_x29_" fill="#898989" points="189.884,450.661 133.076,426.773 133.076,366.114 
		189.884,342.227 466.33,342.227 523.138,366.115 523.138,426.773 466.33,450.661 	"/>
	<polygon id="Back_hood" display="inline" fill="#7F1616" points="146.966,393.551 146.966,360.104 189.915,342.274 
		466.361,342.274 508.581,359.785 508.581,393.551 329.915,469.713 	"/>
	<polyline id="front_of_shirt" display="inline" fill="#1E1E1E" points="253.89,390.985 130.93,426.417 234.857,451.347 
		329.884,519.208 421.356,451.347 523.138,424 405.776,390.985 253.89,390.985 	"/>
	<polygon id="left_upper_shoulder" display="inline" fill="#B21F1F" points="89.884,489.413 184.413,448.444 133.076,425.474 
		89.884,444.472 	"/>
	<polygon id="left_front_hood" display="inline" fill="#BC2A2A" points="147.665,359.738 133.076,366.114 133.076,426.773 
		191.26,451.334 281.551,451.334 253.89,418.333 147.665,393.504 	"/>
	<polyline id="right_front_hood" display="inline" fill="#BC2A2A" points="508.549,393.529 508.549,359.762 523.138,366.138 
		523.138,426.797 464.954,451.359 378.115,451.334 405.776,418.333 	"/>
	<rect id="front_lower_zipper" x="324.469" y="546.24" display="inline" fill="#E04646" width="10.882" height="163.659"/>
	<polyline id="front_hoodie_split" display="inline" fill="#B21F1F" points="281.551,451.334 329.884,519.208 378.115,451.334 
		421.356,451.347 329.985,582.333 234.857,451.347 	"/>
	<polygon id="upper_zipper_path" display="inline" fill="#D33333" points="324.469,546.24 335.351,546.24 335.351,574.642 
		329.985,582.333 324.469,574.738 	"/>
	<rect id="upper_zipper" x="324.469" y="503.647" display="inline" fill="#95A5A6" width="10.882" height="17.301"/>
	<rect id="lower_zipper" x="321.583" y="515.53" display="inline" fill="#BDC3C7" width="16.602" height="30.71"/>
	<polygon id="left_lower_armpit" display="inline" fill="#E23B3B" points="89.884,444.472 89.884,709.899 78.884,709.899 
		54.488,492.412 	"/>
	<polygon id="right_lower_armpit" display="inline" fill="#CE2525" points="569.682,444.488 569.682,709.915 580.683,709.915 
		605.078,492.427 	"/>
	<polygon id="left_lower_shoulder" display="inline" fill="#D33333" points="55.272,499.402 89.884,468.771 89.884,444.472 
		54.488,492.412 	"/>
	<polygon id="right_lower_shoulder" display="inline" fill="#A01C1C" points="604.294,499.417 569.682,468.787 569.682,444.488 
		605.078,492.427 	"/>
	<polygon id="left_arm" display="inline" fill="#E04646" points="54.488,492.412 78.884,709.899 18.491,709.899 	"/>
	<polygon id="right_arm" display="inline" fill="#8C1919" points="605.058,492.412 580.662,709.899 641.055,709.899 	"/>
	<polygon id="left_string_hole" display="inline" fill="#F7F7F7" points="244.678,451.302 244.678,442.694 250.074,436.61 
		257.706,436.61 263.103,442.694 263.103,451.302 	"/>
	<polygon id="right_string_hole" display="inline" fill="#F7F7F7" points="396.563,451.375 396.563,442.766 401.96,436.682 
		409.592,436.682 414.988,442.766 414.988,451.375 	"/>
	<polygon id="left_x2C__left_half_string" display="inline" fill="#D33333" points="246.584,588.422 246.584,443.364 
		250.864,438.54 256.917,438.54 261.196,443.364 261.196,588.422 	"/>
	<polygon id="left_x2C__right_half_string" display="inline" fill="#BA2A2A" points="253.89,438.54 256.917,438.54 261.196,443.364 
		261.196,588.422 253.89,588.422 	"/>
	<polygon id="right_x2C__left_half_string" display="inline" fill="#D33333" points="398.47,588.495 398.47,443.436 
		402.749,438.612 408.802,438.612 413.082,443.436 413.082,588.495 	"/>
	<polygon id="right_x2C__right_half_string" display="inline" fill="#BA2A2A" points="405.776,438.612 408.802,438.612 
		413.082,443.436 413.082,588.495 405.776,588.495 	"/>
	<rect id="left_string_aglet" x="246.584" y="588.422" display="inline" fill="#B21F1F" width="14.612" height="19.411"/>
	<rect id="right_string_aglet" x="398.578" y="588.422" display="inline" fill="#B21F1F" width="14.612" height="19.411"/>
	<polygon id="left_shirt_shadow" display="inline" fill="#111111" points="253.89,418.333 253.89,390.985 201.489,406.084 	"/>
	<polygon id="right_shirt_shadow" display="inline" fill="#111111" points="405.776,418.333 405.776,390.985 458.087,405.701 	"/>
</g>
<g id="Face">
	<g id="Hair">
		<polygon id="Hair_Outline" fill="#141414" points="213.884,206.333 203.884,103.333 189.884,103.333 213.884,70.333 
			201.884,70.333 240.884,38.333 229.884,38.333 316.884,6.333 313.551,0 407.884,11.333 407.884,0.333 424.884,36.333 
			424.884,27.333 450.884,100.333 455.384,133.333 439.384,228.333 219.384,232.833 		"/>
		<polyline id="second_front_wave" fill="#161616" points="257.215,119.652 225.527,133.667 260.549,100 225.527,101.667 
			286.884,84.083 268.55,78.333 349.421,76.333 322.634,63.667 388.116,83.667 381.283,63.667 424.55,105.667 430.687,91.667 
			423.861,131.292 381.948,108.121 342.198,113.371 329.949,118.121 317.546,113.412 277.796,108.162 257.215,119.652 		"/>
		<polygon id="left_half_sheen" fill="#191919" points="229.884,38.333 327.509,19 268.55,42.333 346.217,28.333 283.228,50.333 
			370.112,40.333 308.717,56.333 381.551,50.667 331.884,63.667 402.53,63.667 358.116,74.504 405.782,78.333 381.948,108.121 
			277.796,108.162 235.884,131.333 220.495,213.408 213.44,205.333 204.472,109.616 201.37,109.898 204.197,106.561 
			203.884,103.333 189.884,103.333 213.884,70.333 201.884,70.333 238.27,40.479 		"/>
		<polygon id="leftmost_buzz" fill="#141414" points="189.884,103.333 210.884,98.667 201.37,109.898 219.712,108.126 
			210.884,116.417 230.134,114.583 222.884,124.083 236.327,123.285 225.527,133.667 251.906,122 235.884,131.333 219.796,212.608 
			213.44,205.333 204.472,109.616 201.37,109.898 204.197,106.561 203.884,103.333 		"/>
		<polygon id="secondwave_streak_1" fill="#282828" points="225.527,133.667 261.717,102.5 291.396,98.667 260.549,100 		"/>
		<polyline id="second_wave_streak_2" fill="#282828" points="320.787,85.873 286.884,84.083 225.527,101.667 287.384,85.667 
			320.787,85.873 		"/>
		<polygon id="secondwave_streak_3" fill="#282828" points="268.55,78.333 343.449,78.333 348.884,76.333 		"/>
	</g>
	<g id="Face_x2F_Skin">
		<polygon id="Face_octagon" display="none" fill="#EDBE9D" points="287.986,393.504 228.877,316.92 228.877,139.927 
			287.986,98.154 329.884,113.458 371.578,98.154 430.687,139.927 430.687,316.92 371.578,393.504 		"/>
		<polyline id="Left_Ear" fill="#A3806C" points="228.877,288.664 220.44,281.833 208.69,241.833 203.94,225.333 213.44,205.333 
			228.877,223 		"/>
		<polyline id="Right_Ear" fill="#A3806C" points="430.687,288.664 439.123,281.833 450.873,241.833 455.623,225.333 
			446.123,205.333 430.687,223 		"/>
		<polygon id="Face_Outline" fill="#EDBE9D" points="423.884,131.333 381.884,108.333 342.134,113.583 329.884,118.333 
			329.884,118.333 317.634,113.583 277.884,108.333 235.884,131.333 219.884,217.333 230.884,310.333 243.884,340.333 
			265.956,364.485 292.551,389.333 329.884,400.708 367.217,389.333 393.812,364.485 415.884,340.333 428.884,310.333 
			439.884,217.333 		"/>
		<polygon id="left_chin_shadow_1_" fill="#D6A787" points="219.884,217.333 236.384,265.583 241.076,284.169 248.384,291.083 
			272.538,297.583 289.655,355 297.217,373.833 329.884,369.871 329.884,400.708 292.551,389.333 265.956,364.485 243.884,340.333 
			230.884,310.333 		"/>
		<polygon id="right_chin_shadow" fill="#D6A787" points="439.866,217.396 423.366,265.646 418.674,284.232 411.366,291.146 
			387.212,297.646 370.096,355.063 362.533,373.896 329.866,369.933 329.866,400.771 367.199,389.396 393.794,364.547 
			415.866,340.396 428.866,310.396 		"/>
		<polygon id="left_mandible" fill="#E5B593" points="272.538,297.583 282.431,282.332 292.55,267.5 289.655,274.47 292.55,282.332 
			300.05,288.664 329.884,286.208 329.884,376.198 305.018,378.5 298.427,391.124 292.551,389.333 265.956,364.485 261.92,324.825 
					"/>
		<polygon id="right_mandible" fill="#E5B593" points="387.331,297.583 377.438,282.332 367.319,267.5 370.214,274.47 
			367.319,282.332 359.819,288.664 329.985,286.208 329.985,376.198 354.852,378.5 361.442,391.124 367.317,389.333 
			393.913,364.485 397.948,324.825 		"/>
		<polygon id="left_undercheekbone" fill="#EAB794" points="241.076,284.169 265.956,364.485 261.92,324.825 272.538,297.583 
			248.384,291.083 		"/>
		<polygon id="right_undercheekbone" fill="#EAB794" points="387.331,297.583 411.366,291.146 418.674,284.232 393.913,364.485 
			397.948,324.825 		"/>
	</g>
	<g id="Nose">
		<polygon id="right_outer_nostril" fill="#CC9B83" points="367.217,282.332 370.112,274.47 367.217,267.5 362.217,264.167 
			349.421,243.833 355.884,268 351.884,278 		"/>
		<polygon id="left_outer_nostril" fill="#CC9B83" points="292.55,282.332 289.655,274.47 292.55,267.5 297.55,264.167 
			310.347,243.833 303.884,268 307.884,278 		"/>
		<polygon id="right_nose_bridge_shadow" fill="#DBAA89" points="344.948,226.747 355.884,268 351.884,278 341.551,276 
			346.217,263.082 340.782,228.334 		"/>
		<polygon id="left_nose_bridge_shadow" fill="#DBAA89" points="314.796,226.789 303.884,268 307.884,278 318.217,276 
			313.551,263.083 318.986,228.333 		"/>
		<polygon id="right_nose_bridge" fill="#EDC6AB" points="329.884,228.334 340.782,228.334 346.115,263.083 341.449,276 
			329.884,278 		"/>
		<polygon id="left_nosebridge" fill="#EDC6AB" points="329.884,229.146 318.986,228.333 313.653,263.083 318.319,276 329.884,278 
					"/>
		<polygon id="right_nostril" fill="#BF9282" points="351.782,278 341.449,276 329.884,278 329.782,288.538 344.782,287.834 
			359.615,288.665 367.115,282.333 		"/>
		<polygon id="left_nostril" fill="#BF9282" points="307.884,278 318.217,276 329.884,278 329.884,288.537 314.884,287.833 
			300.05,288.664 292.55,282.332 		"/>
	</g>
	<g id="Lips_x2F_Mouth">
		<polygon id="left_mouth_dimple" fill="#B78B72" points="286.541,324.825 283.228,321.511 283.228,316.826 286.541,313.513 
			291.227,313.513 294.54,316.826 294.54,321.511 291.227,324.825 		"/>
		<polygon id="right_mouth_dimple" fill="#B78B72" points="368.548,324.825 365.234,321.511 365.234,316.826 368.548,313.513 
			373.233,313.513 376.547,316.826 376.547,321.511 373.233,324.825 		"/>
		<polygon id="lowerlip" fill="#DB9779" points="350.39,312.121 329.888,319.273 309.385,312.121 288.884,319.333 309.385,342.227 
			350.39,342.227 370.891,319.333 		"/>
		<path id="upperlip" fill="#CE845F" d="M350.39,312.121c-6.673-1.287-13.498,0-13.498,0l-7.008,4.91l-7-4.91
			c0,0-6.832-1.213-13.499,0s-20.501,7.213-20.501,7.213s23,6.125,41,6.125s41.007-6.125,41.007-6.125
			S357.063,313.408,350.39,312.121z"/>
		<polygon id="left_mouth_outline" fill="#AA7B5C" points="281.407,298.891 268.692,314.856 277.516,328.135 273.896,315.548 		"/>
		<polygon id="right_mouth_outline" fill="#AA7B5C" points="378.259,298.891 390.974,314.856 382.149,328.135 385.77,315.548 		"/>
	</g>
	<g id="Forehead">
		<polygon id="left_temple" fill="#D6A787" points="257.215,119.652 264.469,170.187 246.495,171.494 225.527,187 238.634,138.583 
					"/>
		<polygon id="left_temple_shadow" fill="#AA7D5E" points="235.884,131.333 257.215,119.652 238.634,138.583 225.527,187 		"/>
		<polygon id="left_forehead" fill="#EAB794" points="219.796,217.162 235.13,215.829 269.525,201.98 307.963,222.821 
			301.462,234.83 292.463,267.33 297.463,263.996 310.259,243.662 314.796,226.789 318.986,228.333 329.884,229.146 
			329.796,118.162 317.546,113.412 277.796,108.162 257.215,119.652 264.382,170.016 246.408,171.322 225.44,186.828 		"/>
		<polygon id="right_temple" fill="#D6A787" points="402.53,119.61 395.276,170.146 413.25,171.452 434.218,186.958 
			421.111,138.542 		"/>
		<polygon id="right_temple_shadow" fill="#AA7D5E" points="423.861,131.292 402.53,119.61 421.111,138.542 434.218,186.958 		"/>
		<polygon id="rightforehead" fill="#EAB794" points="439.949,217.12 424.615,215.787 390.22,201.938 351.782,222.78 
			358.283,234.788 367.282,267.289 362.282,263.955 349.485,243.62 344.948,226.747 340.782,228.334 329.884,229.146 
			329.949,118.121 342.198,113.371 381.948,108.121 402.53,119.61 395.363,169.974 413.337,171.281 434.305,186.787 		"/>
	</g>
	<g id="Eyes">
		<polygon id="left_eyes_socket" fill="#E2AE8A" points="227.217,214.852 267.258,198.731 293.959,202.435 312.003,222.993 
			304.436,236.972 279.895,247.253 248.955,241.544 		"/>
		<polygon id="right_eye_socket" fill="#E2AE8A" points="432.622,214.854 392.583,198.732 365.881,202.437 347.837,222.994 
			355.404,236.973 379.946,247.255 410.886,241.545 		"/>
		<polygon id="right_eyeshadow" fill="#A3806C" points="419.925,218.927 407.117,225.717 392.863,233.284 362.494,225.717 
			411.775,218.733 		"/>
		<polygon id="left_eyeshadow_1_" fill="#A3806C" points="240.797,218.927 253.604,225.717 267.858,233.284 298.227,225.717 
			248.946,218.733 		"/>
		<polygon id="right_eyelid" fill="#C49576" points="418.925,218.927 392.149,207.092 370.029,209.808 355.286,229.21 
			382.254,218.151 		"/>
		<polygon id="left_eyelid" fill="#C49576" points="240.797,218.927 267.572,207.092 289.691,209.808 304.436,229.21 
			275.722,218.733 		"/>
		<polygon id="right_eyelash" fill="#141414" points="410.775,218.733 391.761,212.136 370.029,212.136 361.494,225.717 		"/>
		<polygon id="left_eyelash" fill="#141414" points="248.946,218.733 267.959,212.136 289.691,212.136 298.227,225.717 		"/>
		<polygon id="right_cornea" fill="#FFFFFF" points="361.494,225.717 370.029,214.852 390.597,214.852 403.015,220.285 
			387.104,229.21 		"/>
		<polygon id="left_cornea" fill="#FFFFFF" points="298.227,225.717 289.691,214.852 269.124,214.852 256.707,220.285 
			272.616,229.21 		"/>
		<polygon id="right_iris" fill="#141414" points="379.949,227.518 385.52,221.948 385.52,215.312 384.254,214.758 369.427,214.758 
			366.501,218.482 366.501,221.948 372.071,227.518 		"/>
		<polygon id="left_iris" fill="#141414" points="275.046,227.518 280.617,221.948 280.617,215.312 279.351,214.758 
			264.523,214.758 261.599,218.482 261.599,221.948 267.169,227.518 		"/>
		<polygon id="right_pupil" fill="#FFFFFF" points="371.188,222.629 369.02,220.461 369.02,217.392 371.188,215.225 
			374.256,215.225 376.423,217.392 376.423,220.461 374.256,222.629 		"/>
		<polygon id="left_pupil" fill="#FFFFFF" points="266.276,222.629 264.107,220.461 264.107,217.392 266.276,215.225 
			269.344,215.225 271.511,217.392 271.511,220.461 269.344,222.629 		"/>
		<polygon id="Right_eyebrow" fill="#141414" points="349.909,200.334 364.368,187 410.868,187 424.55,197.667 407.472,200.334 
			380.138,193.667 		"/>
		<polygon id="Left_eyebrow" fill="#141414" points="309.858,200.333 295.399,187 248.899,187 235.217,197.667 252.296,200.333 
			279.63,193.667 		"/>
	</g>
	<g id="Front_Hair">
		<polygon id="front_hair_spike" fill="#161616" points="349.421,76.333 309.858,89.583 322.634,91.833 298.884,122 
			317.184,116.309 313.551,145.333 322.634,123.833 329.949,118.121 342.134,113.583 381.948,108.121 423.861,131.292 
			430.687,91.667 424.55,105.667 381.283,63.667 388.116,83.667 322.634,63.667 		"/>
		<polygon fill="#3F3F3F" points="313.551,145.333 320.134,119.61 333.884,108.121 317.184,116.309 		"/>
		<polygon fill="#3F3F3F" points="298.884,122 325.884,96.333 356.134,91.833 322.634,91.833 		"/>
		<polygon fill="#3F3F3F" points="309.858,89.583 348.884,81.083 372.384,89.583 348.884,76.333 		"/>
		<polygon fill="#3F3F3F" points="392.413,89.583 388.116,83.667 322.634,63.667 386.634,84.833 		"/>
	</g>
</g>
<g id="Filter" display="none">
	<polygon id="Right_half_filter" opacity="0.06" fill="#141414" points="641.075,709.899 329.985,709.899 329.884,1.814 
		407.884,11.333 407.884,0.333 424.884,36.333 424.884,27.333 450.884,100.333 455.384,133.333 443.155,209.333 446.123,205.333 
		455.623,225.333 439.123,281.833 431.447,288.664 428.884,310.333 415.884,340.333 414.218,342.208 466.33,342.227 
		523.138,366.115 523.251,424 569.681,444.472 605.058,492.412 	"/>
	<polygon id="Right_half_filter_1_" display="inline" opacity="0.06" fill="#141414" points="659.612,709.899 329.985,709.899 
		329.884,1.814 407.884,11.333 407.884,0.333 424.884,36.333 424.884,27.333 450.884,100.333 455.384,133.333 443.155,209.333 
		446.123,205.333 455.623,225.333 439.123,281.833 431.447,288.664 428.884,310.333 415.884,340.333 405.776,351.436 
		405.776,363.221 413.012,365 425.68,375.667 425.68,393 434.429,411.083 434.513,413.506 598.396,483.652 625.062,517.18 
		639.356,564.108 642.292,606.141 	"/>
</g>
</svg>
