<?xml version="1.0" ?>
<!-- Generator: Adobe Illustrator 16.0.0, SVG Export Plug-In . SVG Version: 6.00 Build 0)  -->
<!DOCTYPE svg PUBLIC "-//W3C//DTD SVG 1.1//EN" "http://www.w3.org/Graphics/SVG/1.1/DTD/svg11.dtd">
<svg version="1.1" id="Layer_1" xmlns="http://www.w3.org/2000/svg" xmlns:xlink="http://www.w3.org/1999/xlink" x="0px" y="0px"
	 width="441.187px" height="427.947px" viewBox="0 0 441.187 427.947" enable-background="new 0 0 441.187 427.947"
	 xml:space="preserve">
<g>
	<polygon fill="#FFFFFF" points="50.472,5.551 62.604,38.913 41.545,38.913 41.545,40.629 65.064,40.629 50.472,0.516 35.88,40.629 
		37.711,40.629 	"/>
	<path fill="#FFFFFF" d="M73.476,2.29h5.265c9.003,0,13.504,2.957,13.504,8.87c0,3.167-1.316,5.475-3.948,6.924l-3.205,1.831
		l6.924,18.998H76.222v1.717h18.254l-7.268-19.971l1.946-1.087c3.205-1.793,4.807-4.597,4.807-8.412c0-3.356-1.278-5.96-3.834-7.811
		c-2.556-1.85-6.352-2.775-11.387-2.775h-6.981v40.056h1.717V2.29z"/>
	<polygon fill="#FFFFFF" points="130.298,40.629 109.239,19.686 128.467,0.573 126.006,0.573 106.779,19.686 127.837,40.629 	"/>
	<rect x="103.231" y="0.573" fill="#FFFFFF" width="1.717" height="40.056"/>
	<polygon fill="#FFFFFF" points="154.617,4.579 167.493,32.218 180.368,4.636 180.368,38.913 157.822,38.913 157.822,40.572 
		182.084,40.629 182.084,0.516 180.368,0.573 167.493,28.155 154.617,0.516 152.9,0.516 152.9,40.572 154.617,40.629 	"/>
	<polygon fill="#FFFFFF" points="203.371,5.551 215.502,38.913 194.444,38.913 194.444,40.629 217.963,40.629 203.371,0.516 
		188.779,40.629 190.61,40.629 	"/>
	<path fill="#FFFFFF" d="M236.732,41.202c3.738,0,6.542-0.687,8.411-2.06s3.319-3.319,4.349-5.837l-1.545-0.744
		c-0.877,2.213-2.117,3.919-3.719,5.122c-1.603,1.202-4.102,1.802-7.496,1.802c-1.87,0-3.473-0.238-4.807-0.715
		c-1.336-0.477-2.538-1.288-3.605-2.432c-1.068-1.144-1.869-2.794-2.404-4.95c-0.534-2.155-0.801-4.815-0.801-7.982v-5.608
		c0-3.166,0.267-5.827,0.801-7.983c0.535-2.155,1.336-3.805,2.404-4.95c1.067-1.145,2.27-1.955,3.605-2.432
		c1.334-0.477,2.937-0.715,4.807-0.715c3.395,0,5.894,0.601,7.496,1.803c1.602,1.202,2.842,2.91,3.719,5.122l1.545-0.744
		c-1.029-2.518-2.479-4.463-4.349-5.836c-1.869-1.374-4.673-2.06-8.411-2.06c-4.693,0-8.089,1.44-10.186,4.32
		c-2.1,2.881-3.148,7.373-3.148,13.476v5.608c0,6.104,1.049,10.596,3.148,13.476C228.644,39.762,232.039,41.202,236.732,41.202z"/>
	<polygon fill="#FFFFFF" points="268.204,5.551 280.336,38.913 259.277,38.913 259.277,40.629 282.796,40.629 268.204,0.516 
		253.611,40.629 255.443,40.629 	"/>
	<path fill="#FFFFFF" d="M291.207,2.29h5.266c9.002,0,13.504,2.957,13.504,8.87c0,3.167-1.316,5.475-3.948,6.924l-3.204,1.831
		l0.857,1.488l3.205-1.831c3.205-1.793,4.807-4.597,4.807-8.412c0-3.356-1.278-5.96-3.834-7.811
		c-2.557-1.85-6.352-2.775-11.387-2.775h-6.982v40.056h1.717V2.29z"/>
	<polygon fill="#FFFFFF" points="329.547,5.551 341.678,38.913 320.619,38.913 320.619,40.629 344.139,40.629 329.547,0.516 
		314.954,40.629 316.785,40.629 	"/>
	<path fill="#FFFFFF" d="M362.906,41.202c4.234,0,7.506-0.896,9.814-2.689c2.307-1.793,3.461-3.967,3.461-6.523V21.173h-9.098v1.717
		h7.039v9.671c0,1.679-1.012,3.252-3.033,4.721c-2.022,1.469-4.75,2.203-8.184,2.203c-1.869,0-3.471-0.238-4.807-0.715
		c-1.336-0.477-2.537-1.288-3.604-2.432c-1.069-1.144-1.87-2.794-2.403-4.95c-0.535-2.155-0.801-4.815-0.801-7.982v-5.608
		c0-3.166,0.266-5.827,0.801-7.983c0.533-2.155,1.334-3.805,2.403-4.95c1.067-1.145,2.269-1.955,3.604-2.432
		c1.336-0.477,2.938-0.715,4.807-0.715c3.396,0,5.895,0.601,7.496,1.803c1.604,1.202,2.842,2.91,3.721,5.122l1.602-0.629
		c-1.029-2.556-2.48-4.53-4.349-5.923c-1.87-1.392-4.692-2.088-8.47-2.088c-4.691,0-8.088,1.44-10.186,4.32
		c-2.098,2.881-3.146,7.373-3.146,13.476v5.608c0,6.104,1.049,10.596,3.146,13.476C354.818,39.762,358.215,41.202,362.906,41.202z"
		/>
	<polygon fill="#FFFFFF" points="381.389,40.629 383.221,40.629 395.98,5.551 408.113,38.913 387.055,38.913 387.055,40.629 
		410.572,40.629 395.98,0.516 	"/>
	<polygon fill="#FFFFFF" points="418.984,38.913 418.984,0.573 417.268,0.573 417.268,40.629 441.188,40.629 441.188,38.913 	"/>
	<polygon fill="#FFFFFF" points="339.432,400.465 339.432,400.594 339.432,412.485 1.718,412.485 1.718,4.579 14.594,32.218 
		27.469,4.636 27.469,38.913 4.923,38.913 4.923,40.572 29.186,40.629 29.186,0.516 27.469,0.573 14.594,28.155 1.718,0.516 
		0.001,0.516 0.001,378.686 0.001,414.202 339.432,414.202 341.148,414.202 341.148,401.219 374.51,413.356 341.148,425.487 
		341.148,420.088 339.432,420.088 339.432,427.948 379.545,413.356 339.432,398.764 	"/>
</g>
</svg>
