<?xml version="1.0" ?>
<!-- Generator: Adobe Illustrator 16.0.0, SVG Export Plug-In . SVG Version: 6.00 Build 0)  -->
<!DOCTYPE svg PUBLIC "-//W3C//DTD SVG 1.1//EN" "http://www.w3.org/Graphics/SVG/1.1/DTD/svg11.dtd">
<svg version="1.1" id="Layer_1" xmlns="http://www.w3.org/2000/svg" xmlns:xlink="http://www.w3.org/1999/xlink" x="0px" y="0px"
	 width="441.186px" height="41.201px" viewBox="0 0 441.186 41.201" enable-background="new 0 0 441.186 41.201"
	 xml:space="preserve">
<rect x="-34.583" y="-31.85" display="none" width="528" height="483"/>
<g>
	<polygon fill="#FFFFFF" points="50.471,5.55 62.602,38.912 41.544,38.912 41.544,40.628 65.063,40.628 50.471,0.515 35.878,40.628 
		37.71,40.628 	"/>
	<path fill="#FFFFFF" d="M73.474,2.289h5.265c9.003,0,13.504,2.957,13.504,8.87c0,3.167-1.316,5.475-3.948,6.924l-3.205,1.831
		l6.924,18.998H76.221v1.717h18.254l-7.268-19.971l1.946-1.087c3.205-1.793,4.807-4.597,4.807-8.412c0-3.356-1.278-5.96-3.834-7.811
		c-2.556-1.85-6.352-2.775-11.387-2.775h-6.981v40.056h1.717V2.289z"/>
	<polygon fill="#FFFFFF" points="130.296,40.628 109.238,19.685 128.465,0.572 126.004,0.572 106.777,19.685 127.835,40.628 	"/>
	<rect x="103.229" y="0.572" fill="#FFFFFF" width="1.717" height="40.056"/>
	<polygon fill="#FFFFFF" points="154.616,4.578 167.491,32.217 180.366,4.635 180.366,38.912 157.82,38.912 157.82,40.571 
		182.083,40.628 182.083,0.515 180.366,0.572 167.491,28.154 154.616,0.515 152.899,0.515 152.899,40.571 154.616,40.628 	"/>
	<polygon fill="#FFFFFF" points="203.37,5.55 215.501,38.912 194.443,38.912 194.443,40.628 217.961,40.628 203.37,0.515 
		188.777,40.628 190.609,40.628 	"/>
	<path fill="#FFFFFF" d="M236.731,41.201c3.738,0,6.542-0.687,8.411-2.06s3.319-3.319,4.349-5.837l-1.545-0.744
		c-0.877,2.213-2.117,3.919-3.719,5.122c-1.603,1.202-4.102,1.802-7.496,1.802c-1.87,0-3.473-0.238-4.807-0.715
		c-1.336-0.477-2.538-1.288-3.605-2.432c-1.068-1.144-1.869-2.794-2.404-4.95c-0.534-2.155-0.801-4.815-0.801-7.982v-5.608
		c0-3.166,0.267-5.827,0.801-7.983c0.535-2.155,1.336-3.805,2.404-4.95c1.067-1.145,2.27-1.955,3.605-2.432
		c1.334-0.477,2.937-0.715,4.807-0.715c3.395,0,5.894,0.601,7.496,1.803c1.602,1.202,2.842,2.91,3.719,5.122l1.545-0.744
		c-1.029-2.518-2.479-4.463-4.349-5.836C243.273,0.687,240.469,0,236.731,0c-4.693,0-8.089,1.44-10.186,4.32
		c-2.1,2.881-3.148,7.373-3.148,13.476v5.608c0,6.104,1.049,10.596,3.148,13.476C228.642,39.761,232.038,41.201,236.731,41.201z"/>
	<polygon fill="#FFFFFF" points="268.203,5.55 280.334,38.912 259.276,38.912 259.276,40.628 282.794,40.628 268.203,0.515 
		253.61,40.628 255.442,40.628 	"/>
	<path fill="#FFFFFF" d="M291.206,2.289h5.266c9.002,0,13.504,2.957,13.504,8.87c0,3.167-1.316,5.475-3.948,6.924l-3.204,1.831
		l0.857,1.488l3.205-1.831c3.205-1.793,4.807-4.597,4.807-8.412c0-3.356-1.278-5.96-3.834-7.811
		c-2.557-1.85-6.352-2.775-11.387-2.775h-6.982v40.056h1.717V2.289z"/>
	<polygon fill="#FFFFFF" points="329.545,5.55 341.676,38.912 320.618,38.912 320.618,40.628 344.137,40.628 329.545,0.515 
		314.953,40.628 316.784,40.628 	"/>
	<path fill="#FFFFFF" d="M362.905,41.201c4.234,0,7.506-0.896,9.814-2.689c2.307-1.793,3.461-3.967,3.461-6.523V21.172h-9.098v1.717
		h7.039v9.671c0,1.679-1.012,3.252-3.033,4.721c-2.022,1.469-4.75,2.203-8.184,2.203c-1.869,0-3.471-0.238-4.807-0.715
		c-1.336-0.477-2.537-1.288-3.604-2.432c-1.069-1.144-1.87-2.794-2.403-4.95c-0.535-2.155-0.801-4.815-0.801-7.982v-5.608
		c0-3.166,0.266-5.827,0.801-7.983c0.533-2.155,1.334-3.805,2.403-4.95c1.067-1.145,2.269-1.955,3.604-2.432
		c1.336-0.477,2.938-0.715,4.807-0.715c3.396,0,5.895,0.601,7.496,1.803c1.604,1.202,2.842,2.91,3.721,5.122l1.602-0.629
		c-1.029-2.556-2.48-4.53-4.349-5.923C369.504,0.696,366.682,0,362.905,0c-4.691,0-8.088,1.44-10.186,4.32
		c-2.098,2.881-3.146,7.373-3.146,13.476v5.608c0,6.104,1.049,10.596,3.146,13.476C354.817,39.761,358.213,41.201,362.905,41.201z"
		/>
	<polygon fill="#FFFFFF" points="381.387,40.628 383.219,40.628 395.979,5.55 408.112,38.912 387.053,38.912 387.053,40.628 
		410.571,40.628 395.979,0.515 	"/>
	<polygon fill="#FFFFFF" points="418.983,38.912 418.983,0.572 417.266,0.572 417.266,40.628 441.186,40.628 441.186,38.912 	"/>
	<polygon fill="#FFFFFF" points="27.467,0.572 14.592,28.154 1.717,0.515 0,0.515 0,40.579 1.717,40.579 1.717,4.578 14.592,32.217 
		27.467,4.635 27.467,38.912 4.921,38.912 4.921,40.571 29.184,40.628 29.184,0.515 	"/>
</g>
</svg>
