<?xml version="1.0" ?>
<!-- Generator: Adobe Illustrator 16.0.0, SVG Export Plug-In . SVG Version: 6.00 Build 0)  -->
<!DOCTYPE svg PUBLIC "-//W3C//DTD SVG 1.1//EN" "http://www.w3.org/Graphics/SVG/1.1/DTD/svg11.dtd">
<svg version="1.1" id="Layer_1" xmlns="http://www.w3.org/2000/svg" xmlns:xlink="http://www.w3.org/1999/xlink" x="0px" y="0px"
	 width="62.625px" height="80.665px" viewBox="0 0 62.625 80.665" enable-background="new 0 0 62.625 80.665" xml:space="preserve">
<rect x="-70.531" y="-40.812" display="none" fill="#2C3E50" width="203.688" height="180.328"/>
<polygon fill="#ECF0F1" points="38.045,66.166 45.904,66.166 31.313,26.053 16.721,66.166 30.441,66.166 30.441,80.661 
	32.158,80.661 32.158,64.449 19.176,64.449 31.313,31.088 43.443,64.449 38.045,64.449 "/>
<path fill="none" stroke="#ECF0F1" stroke-width="1.72" stroke-miterlimit="10" d="M24.159,78.96
	C10.793,75.742,0.86,63.707,0.86,49.353C0.86,32.534,14.494,18.9,31.313,18.9s30.452,13.634,30.452,30.452
	S48.131,79.805,31.313,79.805"/>
<text transform="matrix(1 0 0 1 31.3115 36.5625)" display="none" fill="#FFFFFF" font-family="'Montserrat-Regular'" font-size="11.5185" glyph-orientation-vertical="0" writing-mode="tb" letter-spacing="-2">TOP</text>
<g display="none">
	<path display="inline" fill="#ECF0F1" d="M22.031,6.58v8.46h-2.34V6.58h-2.971V4.555h8.28V6.58H22.031z"/>
	<path display="inline" fill="#ECF0F1" d="M35.246,13.593c-1.061,1.035-2.365,1.553-3.916,1.553c-1.549,0-2.854-0.518-3.914-1.553
		c-1.061-1.035-1.59-2.322-1.59-3.862s0.529-2.828,1.59-3.863c1.06-1.034,2.365-1.552,3.914-1.552c1.551,0,2.855,0.518,3.916,1.552
		c1.06,1.035,1.59,2.323,1.59,3.863S36.306,12.558,35.246,13.593z M34.451,9.737c0-0.935-0.301-1.732-0.9-2.393
		s-1.338-0.989-2.213-0.989s-1.612,0.329-2.212,0.989c-0.601,0.66-0.9,1.458-0.9,2.393c0,0.936,0.3,1.73,0.9,2.385
		c0.6,0.655,1.337,0.983,2.212,0.983s1.613-0.328,2.213-0.983C34.15,11.468,34.451,10.673,34.451,9.737z"/>
	<path display="inline" fill="#ECF0F1" d="M46.038,5.492c0.735,0.625,1.103,1.585,1.103,2.88c0,1.296-0.378,2.243-1.133,2.843
		c-0.755,0.601-1.908,0.9-3.457,0.9h-1.396v2.925h-2.34V4.555h3.705C44.131,4.555,45.303,4.868,46.038,5.492z M44.32,9.617
		c0.279-0.314,0.42-0.774,0.42-1.38c0-0.604-0.183-1.035-0.547-1.29c-0.365-0.255-0.934-0.382-1.703-0.382h-1.335v3.524h1.575
		C43.51,10.09,44.041,9.933,44.32,9.617z"/>
</g>
<g display="none">
	<path display="inline" fill="#ECF0F1" d="M18.485,2.448v11.575h-2.313V2.448h-4.151V0.333h10.615v2.115H18.485z"/>
	<path display="inline" fill="#ECF0F1" d="M36.229,12.134c-1.385,1.352-3.095,2.027-5.133,2.027c-2.036,0-3.747-0.676-5.131-2.027
		c-1.385-1.352-2.076-3.036-2.076-5.053c0-2.018,0.691-3.702,2.076-5.054C27.35,0.676,29.061,0,31.097,0
		c2.038,0,3.748,0.676,5.133,2.027c1.383,1.352,2.075,3.036,2.075,5.054C38.305,9.098,37.612,10.782,36.229,12.134z M34.534,3.565
		c-0.933-0.967-2.079-1.449-3.438-1.449c-1.357,0-2.503,0.482-3.437,1.449c-0.935,0.967-1.401,2.139-1.401,3.516
		s0.467,2.549,1.401,3.516c0.934,0.966,2.079,1.449,3.437,1.449c1.358,0,2.505-0.483,3.438-1.449c0.934-0.967,1.4-2.139,1.4-3.516
		S35.468,4.532,34.534,3.565z"/>
	<path display="inline" fill="#ECF0F1" d="M50.468,1.528c0.953,0.797,1.43,2.024,1.43,3.682c0,1.659-0.486,2.873-1.459,3.644
		c-0.973,0.77-2.465,1.155-4.476,1.155h-2.429v4.015h-2.311V0.333h4.7C47.999,0.333,49.515,0.732,50.468,1.528z M48.832,7.179
		c0.464-0.489,0.696-1.207,0.696-2.154c0-0.946-0.295-1.615-0.883-2.007c-0.586-0.393-1.507-0.588-2.76-0.588h-2.352v5.484h2.684
		C47.497,7.914,48.369,7.669,48.832,7.179z"/>
</g>
<g>
	<path fill="#ECF0F1" d="M23.931,1.711h-4.932v12.681h-1.812V1.711h-4.932v-1.61h11.675V1.711z"/>
	<path fill="#ECF0F1" d="M24.517,7.246C24.517,3.441,27.415,0,31.279,0c4.006,0,6.703,3.684,6.703,7.266
		c0,3.805-2.879,7.227-6.743,7.227C27.234,14.492,24.517,10.91,24.517,7.246z M31.26,12.862c3.039,0,4.891-2.859,4.891-5.616
		c0-2.919-1.992-5.596-4.891-5.596c-3.04,0-4.911,2.818-4.911,5.596C26.349,10.165,28.301,12.862,31.26,12.862z"/>
	<path fill="#ECF0F1" d="M40.521,14.392V0.101h5.958c2.517,0,4.327,2.314,4.327,4.569c0,2.354-1.69,4.589-4.207,4.589h-4.267v5.133
		H40.521z M42.333,7.648h4.166c1.489,0,2.476-1.348,2.476-2.979c0-1.69-1.207-2.959-2.596-2.959h-4.046V7.648z"/>
</g>
</svg>
